<?xml version="1.0" encoding="utf-8"?>
<!-- Generator: Adobe Illustrator 21.0.2, SVG Export Plug-In . SVG Version: 6.00 Build 0)  -->
<svg version="1.1" id="Layer_1" xmlns="http://www.w3.org/2000/svg" xmlns:xlink="http://www.w3.org/1999/xlink" x="0px" y="0px"
	 viewBox="0 0 735.1 980" style="enable-background:new 0 0 735.1 980;" xml:space="preserve">
<style type="text/css">
	.st0{clip-path:url(#SVGID_2_);}
	.st1{clip-path:url(#SVGID_2_);fill:none;stroke:#000000;stroke-width:39.685;stroke-miterlimit:10;}
</style>
<g>
	<defs>
		<rect id="SVGID_1_" width="735.1" height="980"/>
	</defs>
	<clipPath id="SVGID_2_">
		<use xlink:href="#SVGID_1_"  style="overflow:visible;"/>
	</clipPath>
	<path class="st0" d="M367.5,0C165.1,0,0,172.5,0,376.7c0,213.9,196.8,449.9,326.6,578.7c0.5,0.6,22.1,24.6,48.8,24.6h2.4
		c26.6,0,48.1-24,48.6-24.6c110-138.5,308.7-374.3,308.7-578.7C735,172.5,600.6,0,367.5,0 M367.5,612.5c-135.3,0-245-109.7-245-245
		s109.7-245,245-245c135.3,0,245,109.7,245,245S502.8,612.5,367.5,612.5"/>
	<circle class="st1" cx="367.6" cy="369.5" r="190.5"/>
	<path class="st1" d="M237.5,369.5c0-71.8,58.2-130,130-130s130,58.2,130,130"/>
</g>
</svg>
