<?xml version="1.0" encoding="utf-8"?>
<!-- Generator: Adobe Illustrator 21.0.2, SVG Export Plug-In . SVG Version: 6.00 Build 0)  -->
<svg version="1.1" id="Layer_1" xmlns="http://www.w3.org/2000/svg" xmlns:xlink="http://www.w3.org/1999/xlink" x="0px" y="0px"
	 viewBox="0 0 450 280" style="enable-background:new 0 0 450 280;" xml:space="preserve">
<style type="text/css">
	.st0{fill-rule:evenodd;clip-rule:evenodd;}
</style>
<g>
	<path class="st0" d="M111,159.8h9.4l2.5-5.7l9.6,0.2l2.7,5.7h9.4l-16.8-46.7L111,159.8L111,159.8z M125.3,145.4c0,0,2-8.7,2.2-7.9
		c0.2,0.7,2.2,7.7,2.2,7.7L125.3,145.4L125.3,145.4z"/>
	<path class="st0" d="M150.6,143.7c0-12.1,13.4-6.2,13.4-6.2s0,0,5.4-6.2c-4.7-4.5-11.9-4.2-11.9-4.2c-3.7,0-14.3,1.2-15.8,17.5
		c5.9,26,27.9,12.1,27.9,12.1l-5.4-6.2C164.1,150.6,150.6,155.8,150.6,143.7L150.6,143.7z"/>
	<polygon class="st0" points="266.2,124.7 262.3,116.8 218.8,116.8 209.9,140.2 199.7,116.5 155.5,116.5 150.8,124.7 170.8,124.7 
		170.8,159.8 180.2,159.8 180.2,124.7 193.1,124.7 209.6,166.7 226,124.7 266.2,124.7 	"/>
	<polygon class="st0" points="184.8,160 193.3,160 193.3,127.6 184.9,127.6 184.8,160 	"/>
	<polygon class="st0" points="225.9,160 234.4,160 234.4,127.6 226,127.6 225.9,160 	"/>
	<polygon class="st0" points="256,160 264.5,160 264.5,127.6 256.1,127.6 256,160 	"/>
	<path class="st0" d="M247.7,134.6h5.4l0.2-6.7l-9.6-0.2c0,0-6.7,0-6.7,6.2c0,6.2,7.9,14.8,7.9,14.8s2,1.7,1,3.2
		c-1,1.5-9.1,0.5-9.1,0.5v7.4h11.9c0,0,6.4,0.7,6.4-6.2c0-6.9-8.9-16.1-8.9-16.1C244.9,136.1,245.6,134.6,247.7,134.6L247.7,134.6z"
		/>
	<path class="st0" d="M283.3,126.7c0,0-17.8-0.5-17.3,17.3c0.5,17.8,15.8,17.1,17.3,17.1c1.5,0,16.3-1.5,16.1-18
		C299.1,126.4,283.3,126.7,283.3,126.7L283.3,126.7z M283.5,152.1c0,0-8.7,1.2-8.7-8.4c0-9.6,8.2-8.4,8.2-8.4s7.2,0.5,7.4,6.9
		C291.5,151.6,283.5,152.1,283.5,152.1L283.5,152.1z"/>
	<polygon class="st0" points="316.7,127.6 315.9,138.5 300.9,126.7 301.1,159.8 310,159.8 310,147.4 324.6,159.8 324.6,127.6 
		316.7,127.6 	"/>
	<path class="st0" d="M336,153.3c0.7,0.4,1.2,0.9,1.6,1.5c0.4,0.7,0.6,1.4,0.6,2.2c0,0.7-0.2,1.4-0.6,2.1c-0.4,0.7-0.9,1.2-1.6,1.6
		c-0.7,0.4-1.4,0.6-2.1,0.6c-0.7,0-1.4-0.2-2.1-0.6c-0.7-0.4-1.2-0.9-1.6-1.5c-0.4-0.7-0.6-1.4-0.6-2.1c0-0.7,0.2-1.5,0.6-2.1
		c0.4-0.7,0.9-1.2,1.5-1.5c0.7-0.4,1.4-0.6,2.1-0.6C334.6,152.8,335.3,153,336,153.3L336,153.3z M331.4,152.6
		c-0.8,0.4-1.4,1.1-1.9,1.9c-0.5,0.8-0.7,1.7-0.7,2.6c0,0.9,0.2,1.7,0.7,2.5c0.4,0.8,1.1,1.4,1.9,1.9c0.8,0.5,1.6,0.7,2.6,0.7
		c0.9,0,1.7-0.2,2.5-0.7c0.8-0.4,1.4-1,1.9-1.9c0.5-0.8,0.7-1.7,0.7-2.6c0-0.9-0.2-1.7-0.7-2.6c-0.4-0.8-1.1-1.4-1.9-1.9
		c-0.8-0.5-1.7-0.7-2.6-0.7C333,151.9,332.2,152.1,331.4,152.6L331.4,152.6z M332.6,159.8v-2.3h0.5c0.3,0,0.5,0.1,0.7,0.2
		c0.2,0.2,0.5,0.6,0.9,1.3l0.5,0.9h1.1l-0.7-1.1c-0.3-0.5-0.6-0.9-0.8-1.1c-0.1-0.1-0.3-0.2-0.5-0.3c0.4,0,0.8-0.2,1.1-0.5
		c0.3-0.3,0.5-0.7,0.5-1.1c0-0.3-0.1-0.6-0.3-0.8c-0.2-0.3-0.5-0.5-0.9-0.6c-0.2-0.1-0.6-0.1-1.1-0.1h-1.9v5.5H332.6L332.6,159.8z
		 M332.6,155.1h1c0.4,0,0.7,0,0.9,0.1c0.3,0.1,0.5,0.4,0.5,0.7c0,0.6-0.4,0.8-1.3,0.8h-1.1V155.1L332.6,155.1z"/>
</g>
</svg>
