<?xml version="1.0" encoding="utf-8"?>
<!-- Generator: Adobe Illustrator 21.0.2, SVG Export Plug-In . SVG Version: 6.00 Build 0)  -->
<svg version="1.1" id="Layer_1" xmlns="http://www.w3.org/2000/svg" xmlns:xlink="http://www.w3.org/1999/xlink" x="0px" y="0px"
	 viewBox="0 0 450 280" style="enable-background:new 0 0 450 280;" xml:space="preserve">
<g>
	<g id="AE_white_2_">
		<path d="M237.4,111.6c4.4,2.3,7,6.6,7,12c0,4.5-2.3,7.5-5.8,10.1c0,0-2.6,2-4.1,3l10.7,12.7c0.3-0.4,4.7-4.5,4.7-4.5h27.8v-10.9
			h-27.8v-9.8h29.7l0-12.6L237.4,111.6z M255.2,155l-3,3l8.6,10.4l18.7,0V155L255.2,155z M221.9,111.6l-28.8,0l-22.6,56.8l19.1,0
			l3.7-10.5l17.9,0c-0.6-1.9-1-4.1-1-6.5c0-7.4,5.2-12.2,10.2-15.6c-2.3-2.7-5.6-6.8-5.6-12.3C214.7,118.1,217.3,113.8,221.9,111.6z
			 M196.2,145.3l6.6-19.7l6.4,19.7H196.2z"/>
	</g>
	<path d="M229.6,119.8c-2.5,0-3.8,1.6-3.8,3.8c0,1.7,1.4,3.3,3,5.2c0.6-0.4,1.9-1.3,1.9-1.3c1.5-1,2.6-2.3,2.6-3.9
		C233.4,121.4,232,119.8,229.6,119.8z"/>
	<path d="M226.6,144.1c-2.6,2-4.5,4.4-4.5,7.6c0,3.7,3.5,7.5,7.2,7.8c2.5,0.2,5.2-0.8,7.2-2.6L226.6,144.1z"/>
</g>
<path d="M225,138.6c-0.8,0-1.4,0.6-1.4,1.4c0,0.8,0.6,1.4,1.4,1.4c0.7,0,1.4-0.6,1.4-1.4C226.4,139.2,225.8,138.6,225,138.6z
	 M225,141.2c-0.6,0-1.1-0.5-1.1-1.2c0-0.7,0.5-1.2,1.1-1.2c0.6,0,1.1,0.5,1.1,1.2C226.1,140.7,225.6,141.2,225,141.2z M225.6,139.7
	c0-0.3-0.2-0.5-0.6-0.5h-0.6v1.6h0.2v-0.7h0.3l0.4,0.7h0.3l-0.5-0.7C225.5,140.1,225.6,139.9,225.6,139.7z M224.7,139.9v-0.5h0.3
	c0.3,0,0.4,0.1,0.4,0.2c0,0.2-0.1,0.3-0.4,0.3H224.7z"/>
</svg>
