<?xml version="1.0" encoding="utf-8"?>
<!-- Generator: Adobe Illustrator 21.0.2, SVG Export Plug-In . SVG Version: 6.00 Build 0)  -->
<svg version="1.1" id="Layer_1" xmlns="http://www.w3.org/2000/svg" xmlns:xlink="http://www.w3.org/1999/xlink" x="0px" y="0px"
	 viewBox="0 0 450 280" style="enable-background:new 0 0 450 280;" xml:space="preserve">
<style type="text/css">
	.st0{fill:#010101;}
</style>
<path class="st0" d="M231.5,130.4c-0.2-0.3-0.7-0.9-1.1-0.6c-0.3,0.3-5.4,12-6.6,15c0,0,0,0,0.6,0H238
	C236,140.4,231.7,130.7,231.5,130.4 M252.5,164.1H246c-1.2-2.2-5.2-13.3-5.8-15.1h-14.1c-0.4-0.1-1.3-1.7-1.3-1.7h-1.5l-1,2.2
	c0,0-4.6,12-5.6,14.4h-4.7c-0.2-0.9,0-1.8,0-1.8l19.8-46.4L252.5,164.1z M149.7,130.4c-0.2-0.3-0.7-0.9-1.1-0.6
	c-0.4,0.3-5.4,12-6.6,15c0,0,0,0,0.6,0h13.7C154.2,140.4,149.9,130.7,149.7,130.4 M170.8,164.1h-6.5c-1.2-2.2-5.2-13.3-5.8-15.1
	h-14.1c-0.4-0.1-1.3-1.7-1.3-1.7h-1.5l-1,2.2c0,0-4.5,12-5.5,14.4h-4.8c-0.2-0.9,0-1.8,0-1.8l19.8-46.4L170.8,164.1z M174.8,116.2
	h5.3V145h20.9v-28.8h5.7V164h-5.7v-14.7h-20.9v14.8h-5.3V116.2z M281.9,117.4h5.2c0,0.4-1.1,2.2-1.1,2.2l-19.8,44.6l-20.9-46.8h6.5
	c3.3,6.5,14.4,32.1,14.7,32.2c0.2,0.3,0.7,0.9,1.1,0.6C267.8,150,279.1,123.7,281.9,117.4 M320,164.1h-6.5
	c-1.2-2.2-5.2-13.3-5.8-15.1h-14c-0.4-0.1-1.3-1.7-1.3-1.7h-1.5l-1,2.2c0,0-4.5,12-5.6,14.4h-4.6c-0.3-0.9,0-1.8,0-1.8l19.8-46.4
	L320,164.1z M298.9,130.4c-0.2-0.3-0.7-0.9-1.1-0.6c-0.4,0.3-5.4,12-6.6,15c0,0,0,0,0.6,0h13.7C303.5,140.4,299.2,130.7,298.9,130.4
	"/>
</svg>
