<?xml version="1.0" encoding="utf-8"?>
<!-- Generator: Adobe Illustrator 21.0.2, SVG Export Plug-In . SVG Version: 6.00 Build 0)  -->
<svg version="1.1" id="Layer_1" xmlns="http://www.w3.org/2000/svg" xmlns:xlink="http://www.w3.org/1999/xlink" x="0px" y="0px"
	 viewBox="0 0 450 280" style="enable-background:new 0 0 450 280;" xml:space="preserve">
<style type="text/css">
	.st0{clip-path:url(#SVGID_2_);fill:#010101;}
</style>
<g>
	<defs>
		<rect id="SVGID_1_" x="184.5" y="91.9" width="81" height="96.2"/>
	</defs>
	<clipPath id="SVGID_2_">
		<use xlink:href="#SVGID_1_"  style="overflow:visible;"/>
	</clipPath>
	<path class="st0" d="M263.8,166.9c-1.5,3.4-3.2,6.5-5.2,9.3c-2.7,3.9-4.9,6.6-6.7,8c-2.7,2.4-5.5,3.7-8.6,3.8
		c-2.2,0-4.8-0.6-7.9-1.9c-3.1-1.3-5.9-1.9-8.5-1.9c-2.7,0-5.6,0.6-8.8,1.9c-3.1,1.3-5.6,1.9-7.6,2c-2.9,0.1-5.8-1.2-8.8-3.9
		c-1.9-1.6-4.2-4.4-7-8.3c-3-4.2-5.4-9.1-7.4-14.6c-2.1-6-3.1-11.8-3.1-17.4c0-6.4,1.4-12,4.2-16.7c2.2-3.7,5.1-6.7,8.8-8.9
		c3.6-2.2,7.6-3.3,11.8-3.3c2.3,0,5.4,0.7,9.2,2.1c3.8,1.4,6.2,2.1,7.3,2.1c0.8,0,3.5-0.8,8.1-2.5c4.3-1.6,8-2.2,10.9-1.9
		c8.1,0.7,14.2,3.8,18.2,9.6c-7.2,4.4-10.8,10.5-10.7,18.4c0.1,6.1,2.3,11.2,6.7,15.3c2,1.9,4.2,3.3,6.7,4.4
		C265,163.9,264.4,165.4,263.8,166.9 M245.2,93.8c0,4.8-1.8,9.3-5.3,13.5c-4.2,4.9-9.3,7.8-14.9,7.3c-0.1-0.6-0.1-1.2-0.1-1.8
		c0-4.6,2-9.6,5.6-13.6c1.8-2,4-3.7,6.8-5.1c2.7-1.3,5.3-2.1,7.8-2.2C245.2,92.6,245.2,93.2,245.2,93.8z"/>
</g>
</svg>
