<?xml version="1.0" encoding="utf-8"?>
<!-- Generator: Adobe Illustrator 21.0.2, SVG Export Plug-In . SVG Version: 6.00 Build 0)  -->
<svg version="1.1" id="Layer_1" xmlns="http://www.w3.org/2000/svg" xmlns:xlink="http://www.w3.org/1999/xlink" x="0px" y="0px"
	 viewBox="0 0 450 280" style="enable-background:new 0 0 450 280;" xml:space="preserve">
<g>
	<path d="M225.6,92c-26.7-0.3-48.6,21.4-48.6,48c0,26.5,21.4,48,47.9,48c26.5,0,48-21.4,48.1-48C273,113.6,251.6,92.3,225.6,92z
		 M225,181.8c-23,0-41.8-18.8-41.8-41.8c0-23.1,18.8-41.8,42-41.8c22.9,0,41.7,18.9,41.6,41.8C266.8,163.1,248,181.8,225,181.8z"/>
	<path d="M236.4,124.7c-4.5,7.1-9,14.3-13.5,21.4c-0.3,0.5-0.7,0.7-1.3,0.7c-4.7,0-9.5,0-14.2,0c-0.3,0-0.5,0-1,0
		c1.2-1.8,2.3-3.5,3.3-5.2c0.3-0.4,0.5-0.6,1-0.6c2.4,0,4.8-0.1,7.2,0c1.3,0.1,2.1-0.4,2.7-1.5c0.8-1.4,1.7-2.8,2.6-4.2
		c-0.1-0.1-0.2-0.1-0.2-0.1c-7.2,0-14.3,0-21.5,0c-0.2,0-0.6,0.3-0.7,0.5c-1,1.6-2.1,3.2-3.1,4.8c-0.1,0.1-0.1,0.3-0.2,0.5
		c1.7,0,3.4,0,5.2,0c-2.4,3.9-4.8,7.6-7.3,11.5c0.5,0,0.8,0,1,0c9.5,0,19,0,28.5,0c0.6,0,1-0.2,1.3-0.7c3.4-5.4,6.8-10.8,10.3-16.2
		c0.1-0.2,0.3-0.5,0.5-0.8c1.4,2.1,2.7,4.1,4.1,6.2c-1.2,0-2.1,0-3.1,0c-0.3,0-0.7,0.2-0.9,0.5c-0.9,1.4-1.7,2.8-2.6,4.2
		c-0.2,0.3-0.4,0.7-0.6,1.1c3.4,0,6.7,0,10,0c0.7,0,1.1,0.2,1.5,0.8c0.9,1.5,1.9,3,2.9,4.4c0.2,0.2,0.4,0.5,0.6,0.5
		c2.2,0,4.4,0,6.7,0c-6.4-9.6-12.6-19.1-18.9-28.7C236.7,124.2,236.5,124.5,236.4,124.7z"/>
	<path d="M228.1,129.6c0.2,0,0.5-0.2,0.6-0.4c1.1-1.7,2.1-3.3,3.2-5c0.1-0.1,0.1-0.2,0.1-0.4c-7.7,0-15.4,0-23.1,0
		c-0.2,0-0.5,0.1-0.5,0.2c-1.1,1.8-2.3,3.6-3.5,5.5C212.7,129.6,220.4,129.6,228.1,129.6z"/>
	<path d="M243,124.6c0.3,0.6,0.5,1,0.7,1.6c0.3-0.6,0.5-1,0.7-1.5c0.1,0.5,0.1,0.9,0.2,1.3c0.1,0,0.1,0,0.2,0c0-0.7,0-1.4,0-2.1
		c-0.9,0.2-0.6,1.2-1.1,1.5c-0.3-0.5-0.5-1-0.8-1.5c-0.1,0-0.2,0.1-0.2,0.1c0,0.7,0,1.4,0,2.1c0.1,0,0.1,0,0.2,0
		C243,125.6,243,125.2,243,124.6z"/>
	<path d="M241.4,126c0.1,0,0.2,0,0.3,0c0-0.6,0-1.1,0-1.7c0.3-0.1,0.5-0.2,0.7-0.2c0,0,0-0.1,0-0.1c-0.5,0-1.1,0-1.6,0
		c0,0,0,0.1,0,0.1c0.2,0.1,0.4,0.1,0.7,0.2C241.4,124.8,241.4,125.4,241.4,126z"/>
</g>
</svg>
