<?xml version="1.0" encoding="utf-8"?>
<!-- Generator: Adobe Illustrator 21.0.2, SVG Export Plug-In . SVG Version: 6.00 Build 0)  -->
<svg version="1.1" id="Layer_1" xmlns="http://www.w3.org/2000/svg" xmlns:xlink="http://www.w3.org/1999/xlink" x="0px" y="0px"
	 viewBox="0 0 450 280" style="enable-background:new 0 0 450 280;" xml:space="preserve">
<style type="text/css">
	.st0{fill-rule:evenodd;clip-rule:evenodd;}
</style>
<g>
	<path class="st0" d="M201.9,104.6c-19.6,0-35.4,15.9-35.4,35.4c0,19.5,15.8,35.4,35.4,35.4c19.5,0,35.4-15.8,35.4-35.4
		C237.3,120.5,221.5,104.6,201.9,104.6L201.9,104.6z M188.9,122.8c2.3,0,4.2,1.9,4.2,4.2c0,2.4-1.9,4.3-4.2,4.3
		c-2.4,0-4.3-1.9-4.3-4.3C184.6,124.7,186.5,122.8,188.9,122.8L188.9,122.8z M205.6,157.1h-5v-33.4h3.3v30h1.7h5v3.3H205.6
		L205.6,157.1z M205.6,167.6c12.5-1.7,22.4-11.7,24-24.3h-19v-3.5h22c0,15.7-11.8,28.7-27,30.6c-1.2,0.1-2.5,0.2-3.7,0.2
		c-4.7,0-9.1-1-13-2.9c-10.4-4.9-17.7-15.5-17.7-27.8c0-12.3,7.3-22.9,17.7-27.8c3.7-1.7,7.9-2.8,12.4-2.9v2.9
		c-4.5,0.1-8.7,1.2-12.4,3.2c-8.8,4.7-14.9,14-14.9,24.6c0,10.7,6,19.9,14.9,24.6c3.9,2.1,8.3,3.2,13,3.2
		C203.1,167.9,204.4,167.8,205.6,167.6L205.6,167.6z"/>
	<path class="st0" d="M239.7,153.3V129h8v18.6h10.9v5.7H239.7L239.7,153.3z M283.5,153.4h-5.2l-0.3-2.4c-1.3,1.6-3.5,3-7.4,3
		c-6.2,0-11.8-4-11.8-12.5c0-7.8,4.9-13.1,12.8-13.1c5.8,0,10.5,3,11.5,9h-7.6c-0.6-2-2-3.1-4.1-3.1c-3.1,0-4.6,2.9-4.6,7.1
		c0,3.4,1.1,6.6,5.1,6.6c1.6,0,3.7-1.1,4.1-2.8h-3.5V140h10.9V153.4L283.5,153.4z"/>
</g>
</svg>
