<?xml version="1.0" encoding="utf-8"?>
<!-- Generator: Adobe Illustrator 21.0.2, SVG Export Plug-In . SVG Version: 6.00 Build 0)  -->
<svg version="1.1" id="Layer_1" xmlns="http://www.w3.org/2000/svg" xmlns:xlink="http://www.w3.org/1999/xlink" x="0px" y="0px"
	 viewBox="0 0 450 280" style="enable-background:new 0 0 450 280;" xml:space="preserve">
<g>
	<path d="M90.5,140c0-1.7,0-1.6,0-2.3c0,0,0,0,0,0c-0.2-16.2-2.2-29.5-3.2-35.6c-0.4-2.5-0.6-2.7-3.2-3.1c-1.3-0.2-2.5-0.3-3.6-0.4
		v0v0c-1-0.1-2.4-0.1-2.4-0.1s-1.3,0-2.4,0.1v0v0c-1.1,0.1-2.3,0.2-3.6,0.4c-2.6,0.4-2.8,0.6-3.2,3.1c-1,6-3.1,19.4-3.2,35.6
		c0,0,0,0,0,0c0,0.6,0,0.6,0,2.3c0,1.7,0,1.7,0,2.3l0,0c0.2,16.2,2.2,29.5,3.2,35.6c0.4,2.5,0.6,2.7,3.2,3.1
		c1.2,0.2,2.3,0.3,3.3,0.4c0,0,0,0,0,0c1,0.1,2.7,0.1,2.7,0.1s1.7,0,2.7-0.1c0,0,0,0,0,0c1-0.1,2.1-0.2,3.3-0.4
		c2.6-0.4,2.8-0.6,3.2-3.1c1-6,3.1-19.4,3.2-35.6v0C90.5,141.6,90.5,141.7,90.5,140 M80.3,100.4c0.3,1.5,0.3,1.9,0.4,2.7
		c0.1,0.4,0.1,0.5,0.3,0.5l0,0c0.3,0,0.6,0.1,0.9,0.1c1.6,0.2,2.1,0.3,2.6,2.3c0.3,1.5,3,14.5,3.2,31.1l0,0v0.1
		c0,0.3,0.2,0.4,0.5,0.5c0.6,0.2,0.8,0.3,1.2,0.4c0.2,0.1,0.3,0.2,0.4,0.6c-1.4-0.1-4-0.3-5.7-0.4c-3.4-0.2-3.7-1-3.7-3.6
		c0-1.2-0.2-22-0.7-35.1C80.3,99.8,80.3,100.4,80.3,100.4 M71.5,106c0.4-2.1,1-2.1,2.6-2.3c0.3,0,0.6-0.1,0.9-0.1
		c0.2,0,0.3-0.1,0.3-0.5c0.1-0.8,0.2-1.2,0.4-2.7c0,0,0.1-0.6,0.7-0.7c-0.5,13.1-0.7,34-0.7,35.1c0,2.6-0.3,3.4-3.7,3.6
		c-1.7,0.1-4.2,0.3-5.7,0.4c0.1-0.4,0.2-0.5,0.4-0.6c0.4-0.1,0.6-0.2,1.2-0.4c0.3-0.1,0.5-0.2,0.5-0.5c0-0.1,0-0.1,0-0.1l0,0
		C68.5,120.5,71.1,107.6,71.5,106 M75.7,179.6c-0.2-1.5-0.3-1.9-0.4-2.7c-0.1-0.4-0.1-0.5-0.3-0.5v0c-0.3,0-0.6-0.1-0.9-0.1
		c-1.6-0.2-2.1-0.3-2.6-2.3c-0.3-1.5-3-14.5-3.2-31.1h0c0,0,0-0.1,0-0.1c0-0.3-0.2-0.4-0.5-0.5c-0.6-0.2-0.8-0.3-1.2-0.4
		c-0.2-0.1-0.3-0.2-0.4-0.6c1.7,0.1,4.1,0.3,5.7,0.4c3.4,0.2,3.7,1,3.7,3.6c0,1.2,0.2,22.1,0.7,35.1
		C75.7,180.2,75.7,179.6,75.7,179.6 M84.5,174c-0.4,2.1-1,2.1-2.6,2.3c-0.3,0-0.6,0.1-0.9,0.1l0,0c-0.2,0-0.3,0.1-0.3,0.5
		c-0.1,0.8-0.2,1.2-0.4,2.7c0,0,0,0.6-0.7,0.7c0.5-13,0.7-33.9,0.7-35.1c0-2.6,0.3-3.4,3.7-3.6c1.6-0.1,4-0.3,5.7-0.4
		c-0.1,0.4-0.2,0.5-0.4,0.6c-0.4,0.1-0.6,0.2-1.2,0.4c-0.3,0.1-0.5,0.2-0.5,0.5v0.1h0C87.5,159.5,84.8,172.4,84.5,174"/>
	<rect x="114.8" y="99.7" width="1.5" height="80.7"/>
	<polygon points="143.3,117.5 138,117.5 138,113.9 152.4,113.9 152.4,117.5 147.2,117.5 147.2,131.3 143.3,131.3 	"/>
	<polygon points="156,113.9 159.8,113.9 159.8,120.8 166.9,120.8 166.9,113.9 170.7,113.9 170.7,131.3 166.9,131.3 166.9,124.3 
		159.8,124.3 159.8,131.3 156,131.3 	"/>
	<polygon points="176,113.9 189.1,113.9 189.1,117.3 179.8,117.3 179.8,120.9 188,120.9 188,124.3 179.8,124.3 179.8,127.9 
		189.2,127.9 189.2,131.3 176,131.3 	"/>
	<polygon points="200.1,113.9 203.9,113.9 203.9,127.8 212.6,127.8 212.6,131.3 200.1,131.3 	"/>
	<rect x="216.2" y="113.9" width="3.8" height="17.4"/>
	<polygon points="225.3,113.9 228.8,113.9 237,124.6 237,113.9 240.7,113.9 240.7,131.3 237.5,131.3 229.1,120.3 229.1,131.3 
		225.3,131.3 	"/>
	<path d="M245.1,122.7L245.1,122.7c0-5,3.7-9,9.1-9c3.3,0,5.2,1.1,6.9,2.7l-2.4,2.8c-1.3-1.2-2.7-2-4.4-2c-2.9,0-5,2.4-5,5.4v0.1
		c0,3,2.1,5.5,5,5.5c2,0,3.2-0.8,4.6-2l2.4,2.5c-1.8,1.9-3.8,3.1-7.1,3.1C248.9,131.6,245.1,127.7,245.1,122.7"/>
	<path d="M263.7,122.7L263.7,122.7c0-5,3.9-9,9.3-9c5.4,0,9.2,4,9.2,8.9v0.1c0,4.9-3.9,9-9.3,9S263.7,127.6,263.7,122.7
		 M278.1,122.7L278.1,122.7c0-3-2.2-5.5-5.3-5.5c-3.1,0-5.2,2.4-5.2,5.4v0.1c0,3,2.2,5.5,5.3,5.5S278.1,125.7,278.1,122.7"/>
	<polygon points="286.5,113.9 290.3,113.9 290.3,127.8 299,127.8 299,131.3 286.5,131.3 	"/>
	<polygon points="302.5,113.9 306.1,113.9 314.2,124.6 314.2,113.9 318,113.9 318,131.3 314.7,131.3 306.3,120.3 306.3,131.3 
		302.5,131.3 	"/>
	<polygon points="140,146.2 144.1,146.2 148.7,153.5 153.3,146.2 157.4,146.2 157.4,163.6 153.6,163.6 153.6,152.2 148.7,159.6 
		148.6,159.6 143.8,152.3 143.8,163.6 140,163.6 	"/>
	<path d="M161.8,154.9L161.8,154.9c0-5,3.9-9,9.3-9c5.4,0,9.2,4,9.2,8.9v0c0,4.9-3.9,9-9.3,9C165.6,163.8,161.8,159.9,161.8,154.9
		 M176.2,154.9L176.2,154.9c0-3-2.2-5.5-5.3-5.5c-3.1,0-5.2,2.4-5.2,5.4v0c0,3,2.2,5.5,5.3,5.5C174.1,160.3,176.2,157.9,176.2,154.9
		"/>
	<polygon points="188,149.7 182.7,149.7 182.7,146.2 197.1,146.2 197.1,149.7 191.9,149.7 191.9,163.6 188,163.6 	"/>
	<path d="M199.6,154.9L199.6,154.9c0-5,3.9-9,9.3-9s9.2,4,9.2,8.9v0c0,4.9-3.9,9-9.3,9C203.5,163.8,199.6,159.9,199.6,154.9
		 M214.1,154.9L214.1,154.9c0-3-2.2-5.5-5.3-5.5c-3.1,0-5.2,2.4-5.2,5.4v0c0,3,2.2,5.5,5.3,5.5S214.1,157.9,214.1,154.9"/>
	<path d="M222.4,146.2h7.9c2.2,0,3.9,0.6,5.1,1.8c1,1,1.5,2.3,1.5,4v0c0,2.8-1.5,4.6-3.7,5.4l4.2,6.2H233l-3.7-5.6h-3v5.6h-3.8
		V146.2z M230.1,154.6c1.9,0,2.9-1,2.9-2.5v0c0-1.6-1.1-2.5-3-2.5h-3.8v5H230.1z"/>
	<path d="M248.1,154.9L248.1,154.9c0-5,3.7-9,9.1-9c3.3,0,5.2,1.1,6.9,2.7l-2.4,2.8c-1.3-1.2-2.7-2-4.4-2c-2.9,0-5,2.4-5,5.4v0
		c0,3,2.1,5.5,5,5.5c2,0,3.2-0.8,4.6-2l2.4,2.5c-1.8,1.9-3.8,3.1-7.1,3.1C251.9,163.8,248.1,159.9,248.1,154.9"/>
	<path d="M266.6,154.9L266.6,154.9c0-5,3.9-9,9.3-9c5.4,0,9.2,4,9.2,8.9v0c0,4.9-3.9,9-9.3,9S266.6,159.9,266.6,154.9 M281.1,154.9
		L281.1,154.9c0-3-2.2-5.5-5.3-5.5c-3.1,0-5.2,2.4-5.2,5.4v0c0,3,2.2,5.5,5.3,5.5C279,160.3,281.1,157.9,281.1,154.9"/>
	<polygon points="289.4,146.2 293.6,146.2 298.1,153.5 302.7,146.2 306.8,146.2 306.8,163.6 303,163.6 303,152.2 298.1,159.6 
		298,159.6 293.2,152.3 293.2,163.6 289.4,163.6 	"/>
	<path d="M312.1,146.2h7.1c4.1,0,6.7,2.5,6.7,6v0.1c0,4-3.1,6.1-7,6.1h-2.9v5.2h-3.8V146.2z M319,154.9c1.9,0,3-1.1,3-2.6v0
		c0-1.7-1.2-2.6-3.1-2.6h-3v5.3H319z"/>
	<path d="M334,146.1h3.5l7.4,17.5h-4l-1.6-3.9h-7.3l-1.6,3.9h-3.9L334,146.1z M338.1,156.3l-2.3-5.6l-2.3,5.6H338.1z"/>
	<polygon points="348.5,146.2 352,146.2 360.2,156.9 360.2,146.2 363.9,146.2 363.9,163.6 360.7,163.6 352.3,152.5 352.3,163.6 
		348.5,163.6 	"/>
	<polygon points="374,156.7 367.3,146.2 371.8,146.2 375.9,153.1 380.2,146.2 384.5,146.2 377.8,156.6 377.8,163.6 374,163.6 	"/>
</g>
</svg>
