<?xml version="1.0" encoding="utf-8"?>
<!-- Generator: Adobe Illustrator 21.0.2, SVG Export Plug-In . SVG Version: 6.00 Build 0)  -->
<svg version="1.1" id="Layer_1" xmlns="http://www.w3.org/2000/svg" xmlns:xlink="http://www.w3.org/1999/xlink" x="0px" y="0px"
	 viewBox="0 0 450 280" style="enable-background:new 0 0 450 280;" xml:space="preserve">
<g>
	<rect x="141.8" y="127.1" width="6" height="25"/>
	<polygon points="124.8,146.8 124.8,127.1 118.9,127.1 118.9,152.1 138.2,152.1 138.2,146.8 	"/>
	<path d="M166,125.8c-7.5,0-13.6,6.1-13.6,13.6l0,0c0,7.5,6.1,13.6,13.6,13.6c7.5,0,13.6-6.1,13.6-13.6
		C179.6,131.9,173.5,125.8,166,125.8z M166,147.1c-4.3,0-7.7-3.5-7.7-7.7c0-4.3,3.5-7.7,7.7-7.7c4.3,0,7.7,3.5,7.7,7.7
		C173.7,143.7,170.2,147.1,166,147.1z"/>
	<polygon points="206.6,127.1 200.7,127.1 200.7,142.1 190,127.1 184.1,127.1 184.1,152.1 190.1,152.1 190.1,137.1 201.4,152.1 
		206.7,152.1 206.7,127.1 	"/>
	<path d="M223.6,137.1L223.6,137.1c-2.2-0.7-5.6-1.4-5.6-3.8c0-1.2,1.4-1.8,3.5-1.8c2.7,0,6.2,0.9,8.4,2.3l0.1,0.1v-5.5l0,0
		c0,0-4.1-1.6-8.4-1.7c-0.2,0-0.5,0-0.7,0c-4.6,0-9.4,1.5-9.4,7.1c0,4.2,4,7.4,7.5,8.3c3.4,1.3,5.3,1.3,5.3,3.8
		c0,1.1-1.1,1.6-2.7,1.6c-2.6,0-6.6-1.3-9.3-3.1l-0.1-0.1v5.5l0,0c0,0,4.6,2.5,8.9,2.6c0.2,0,0.3,0,0.5,0c4.7,0,9.5-2.3,9.5-7.2
		C231,139.7,227.1,138,223.6,137.1z"/>
	<path d="M260.6,138L260.6,138l-13.4-0.1v0.1v5.1h7.3c-1.3,2.4-3.9,4-6.8,4c-4.3,0-7.7-3.5-7.7-7.7c0-4.3,3.5-7.7,7.7-7.7
		c2.9,0,5.5,1.6,6.8,4.1l0,0.1l4.7-3.6l0-0.1c-2.4-3.8-6.7-6.3-11.5-6.3c-7.5,0-13.6,6.1-13.6,13.6c0,7.5,6.1,13.6,13.6,13.6
		c7.5,0,12.9-6.1,12.9-13.6C260.6,138.9,260.6,138.5,260.6,138z"/>
	<path d="M277.2,127.1L277.2,127.1h-5.8h0h-0.1l-10.5,24.7h6l2.2-5.1h10.7l2.2,5.1h0.1h5.9L277.2,127.1z M271.1,141.4l3.1-7.3
		l3.1,7.3H271.1z"/>
	<polygon points="306.6,127 284.8,127 284.8,132.2 292.8,132.2 292.8,151.9 298.7,151.9 298.7,132.2 306.6,132.2 306.6,127 	"/>
	<polygon points="328,146.6 316.1,146.6 316.1,142 327.4,142 327.4,136.7 316.1,136.7 316.1,132.2 328,132.2 329.9,127 310.1,127 
		310.1,127.2 310.1,151.9 329.9,151.9 	"/>
</g>
</svg>
