<?xml version="1.0" encoding="utf-8"?>
<!-- Generator: Adobe Illustrator 21.0.2, SVG Export Plug-In . SVG Version: 6.00 Build 0)  -->
<svg version="1.1" id="Layer_1" xmlns="http://www.w3.org/2000/svg" xmlns:xlink="http://www.w3.org/1999/xlink" x="0px" y="0px"
	 viewBox="0 0 450 280" style="enable-background:new 0 0 450 280;" xml:space="preserve">
<style type="text/css">
	.st0{fill-rule:evenodd;clip-rule:evenodd;}
</style>
<g>
	<path class="st0" d="M262.6,181.2c0.2-0.8,0.7-1.6,1.4-2.2c1-1,2.3-1.5,3.7-1.5c1.5,0,2.7,0.5,3.7,1.5c0.7,0.7,1.1,1.4,1.4,2.2l0,0
		h-0.7l0,0c-0.2-0.6-0.6-1.2-1.1-1.7c-0.9-0.9-2-1.3-3.2-1.3c-1.2,0-2.3,0.4-3.2,1.3c-0.5,0.5-0.9,1.1-1.1,1.7l0,0H262.6
		L262.6,181.2L262.6,181.2z"/>
	<path class="st0" d="M265.8,181.2v-1.6h2.2l0,0c0.8,0,1.3,0.2,1.7,0.5c0.3,0.3,0.5,0.7,0.5,1.1c0,0,0,0,0,0l0,0h-0.7v0l0,0
		c0-0.3-0.1-0.5-0.3-0.7c-0.2-0.2-0.7-0.3-1.5-0.3l0,0h-1.1v1H265.8L265.8,181.2L265.8,181.2z"/>
	<path class="st0" d="M262.6,181.2c-0.1,0.4-0.2,0.9-0.2,1.4c0,1.4,0.5,2.6,1.6,3.6c1,1,2.3,1.5,3.7,1.5c1.5,0,2.7-0.5,3.7-1.5
		c1-1,1.5-2.2,1.5-3.6c0-0.5-0.1-0.9-0.2-1.4l0,0h-0.7l0,0c0.1,0.4,0.2,0.9,0.2,1.4c0,1.2-0.5,2.3-1.4,3.1c-0.9,0.9-2,1.3-3.2,1.3
		c-1.2,0-2.3-0.4-3.2-1.3c-0.9-0.8-1.3-1.9-1.3-3.1c0-0.5,0.1-0.9,0.2-1.4l0,0H262.6L262.6,181.2L262.6,181.2z"/>
	<path class="st0" d="M265.8,181.2v3.9h0.7v-2.3h0.5l0,0c0.5,0,0.9,0.1,1.1,0.2c0.2,0.1,0.5,0.6,0.9,1.3l0,0l0.5,0.9h0.9l-0.5-1l0,0
		c-0.1-0.2-0.2-0.4-0.4-0.7c-0.2-0.2-0.3-0.4-0.4-0.5c-0.1-0.1-0.3-0.1-0.5-0.2c0.5-0.1,0.9-0.3,1.1-0.5c0.3-0.3,0.5-0.7,0.5-1.1
		l0,0h-0.7l0,0c0,0.2-0.1,0.4-0.2,0.6c-0.1,0.2-0.3,0.3-0.5,0.3c-0.3,0.1-0.8,0.1-1.6,0.1l0,0h-0.7v-1H265.8L265.8,181.2
		L265.8,181.2z"/>
	<g>
		<polygon class="st0" points="208.4,140 206.3,136.9 206,140 205.9,141.4 205.5,145.9 211.5,144.6 209.4,141.4 		"/>
		<path class="st0" d="M269.9,142.4l4.1-2.5l-3.7-2.6l-10.6,2.5l-4.3-16.8l2.3-0.5l3.8,15.1l8.9-2.1l0.2,0.6l3.1-2.4l-4.4-2.5
			l3.2-3.7l-5.3-1.8l3.1-4.3l-4.7-1.1l1.9-4.4l-5-0.5l1.6-4.8l-5.2,0.3l0.9-4.9l-4.9,1l0-5.2l-4.7,1.3l-0.5-4.9l-4.7,2.2l-1.1-4.9
			l-4.4,2.9l-1.8-4.8l-3.8,2.9l-2.4-4.4l-3.7,3.9l-2.8-4.3l-2.8,4.5l-3.5-3.8l-2.3,4l-4.1-2.9l-1.6,5l-4.3-3l-0.9,4.9l-4.9-2.3
			l-0.3,4.9l-5-1.2l0.4,4.9l-5.3-1.1l1,5.1l-5.2-0.2l1.7,4.9l-4.9,0.3l1.8,4.6l-5.1,1l3.2,4.8l-5,1.4l3.1,3.9l-4.2,2l3.7,3.9
			l-4.3,2.8l3.6,2.3l-0.4-1.6l3.2-0.7l9.4,13.1l2.1-15.9l3.2-0.7l4.2,16.9l-2.2,0.5l-3.4-13.5l-0.2-0.6h-0.1l-2.1,15.5l-2,0.5
			l-9.3-12.8l-0.1,0l0.2,0.6l3.4,13.5l-2.3,0.5l-0.8-3.2l-2.8,4.1l5.3,0.9l-2.2,4.6l4.8,0.6l-1.5,4.8l5.4-0.2l-1,4.8l5.2-0.7
			l-0.2,4.8l5.1-1.4l0.3,4.9l4.7-1.7l0.9,4.6l5-2.8l1.4,5l4.1-3.1l2,4l3.9-3.7l2.4,4.4l3.5-4.6l3.2,4l2.5-4.3l3.4,3l2.2-5l4,3.2
			l1.3-5.3l4.4,2.2l0.7-5l4.4,1.5l0.1-5.2l5.1,1.1l-0.7-5.2l4.7,0.4l-1.4-5.2l4.9-0.1l-1.8-4.8l4.9-0.8l-2.6-4.5l4.6-1.2l-3.6-4.5
			l4.5-2L269.9,142.4z M215.3,150.2l-2.8-4l-7.3,1.7l-0.6,4.8l-2.3,0.6l1.5-11.8l0.2-1.4l0.7-5.2l2.2-0.5l4,5.7l1,1.4l5.8,8.2
			L215.3,150.2z M234.4,129.6l3.8,15.1l-2.2,0.5l-3.8-15.1l-5.7,1.4l0,0l-5.4,1.3l3.8,15.2l-2.2,0.5l-3.8-15.2l-5.8,1.4l-0.4-1.7
			l13.3-3.1l0,0l13.5-3.2l0.4,1.8L234.4,129.6z M245.5,143.1l-4.3-16.9l12.5-2.9l0.4,1.7l-10.2,2.4l1.4,5.7l9.3-2.2l0.4,1.7
			l-9.3,2.2l1.5,5.9l10.5-2.4l0.4,1.7L245.5,143.1z"/>
		<polygon class="st0" points="182.5,154.2 179.9,143.6 176.4,146.3 180.9,148.7 177.7,152.5 		"/>
	</g>
</g>
</svg>
