<?xml version="1.0" encoding="utf-8"?>
<!-- Generator: Adobe Illustrator 21.0.2, SVG Export Plug-In . SVG Version: 6.00 Build 0)  -->
<svg version="1.1" id="Layer_1" xmlns="http://www.w3.org/2000/svg" xmlns:xlink="http://www.w3.org/1999/xlink" x="0px" y="0px"
	 viewBox="0 0 450 280" style="enable-background:new 0 0 450 280;" xml:space="preserve">
<style type="text/css">
	.st0{fill-rule:evenodd;clip-rule:evenodd;}
</style>
<g>
	<path class="st0" d="M271.5,121.2c0-1.3-1.2-2.5-2.5-2.5h-3.6c-1.3,0-2.3,1.2-2.3,2.5v37.7c0,1.3,1,2.3,2.3,2.3h3.6
		c1.3,0,2.5-1,2.5-2.5V121.2L271.5,121.2z"/>
	<path class="st0" d="M276.1,122.2v1.8c0,0.7,0.7,1.3,1.3,1.3h24.8c1.2,0,2-0.8,2-2v-3.1c0-1.2-0.8-2.1-2-2c0,0-24,2.3-24.8,2.5
		C276.6,120.7,276.1,121.5,276.1,122.2L276.1,122.2z"/>
	<path class="st0" d="M256,161.1c-6.2,0-10-4.6-10-9.9v-15h-1.8c-1,0-1.6-0.8-1.6-1.6V132c0-1,0.7-1.6,1.6-1.6h1.8v-9.2
		c0-1.3,1-2.5,2.3-2.5h3.5c1.3,0,2.5,1.2,2.5,2.5v9.2h5.4c1,0,1.6,0.7,1.6,1.6v2.6c0,0.8-0.7,1.6-1.6,1.6h-5.4v13.8
		c0,2.8,1.6,4.6,4.6,4.6h0.5c1,0,1.8,0.8,1.8,1.8v2.8c0,1-0.8,1.8-1.8,1.8H256L256,161.1z"/>
	<path class="st0" d="M198.3,135.7c3.6,0,6.9,2.6,7.2,6.2h-14.3C191.5,138.3,194.7,135.7,198.3,135.7v-6.4c-10,0-15.6,7.9-15.6,16.1
		c0,8.7,6.1,16.4,15.6,16.4c6.6,0,13.2-3.5,14.3-9.2c0.2-0.8-0.3-1.8-1.3-1.8h-4.8c-0.8,0-1.5,0.5-2,1c-1.3,2-3.3,3.1-6.2,3.1
		c-4.1,0-6.9-3.3-7.2-6.9h20.1c1.8,0,2.6-1,2.6-2.6c0-8.1-4.8-16.1-15.5-16.1V135.7L198.3,135.7z"/>
	<path class="st0" d="M289.5,135.7c3.6,0,6.9,2.6,7.2,6.2h-14.3C282.8,138.3,285.9,135.7,289.5,135.7v-6.4c-10,0-15.6,7.9-15.6,16.1
		c0,8.7,6.1,16.4,15.6,16.4c6.7,0,13.2-3.5,14.3-9.2c0.2-0.8-0.3-1.8-1.3-1.8h-4.8c-0.8,0-1.5,0.5-2,1c-1.3,2-3.3,3.1-6.2,3.1
		c-4.1,0-6.9-3.3-7.2-6.9h20.1c1.8,0,2.6-1,2.6-2.6c0-8.1-4.6-16.1-15.5-16.1V135.7L289.5,135.7z"/>
	<path class="st0" d="M239.2,119.2h-65c-1.5,0-2.6,1.2-2.6,2.6l0.2,25.5c0,0-14-25.3-14.6-26.5c-0.7-1.3-2.1-2.5-4.3-2.5h-5.3
		c-1.5,0-2.6,1.3-2.6,2.8v37.3c0,1.5,1.2,2.6,2.6,2.6h3.5c1.5,0,2.6-1.2,2.6-2.6l-0.2-26.1c0,0,14.1,25.5,14.6,26.5
		c0.8,1.3,2.3,2.3,4.3,2.3h4.8c1.5,0,2.8-1.2,2.8-2.6v-33.1h59.2c1,0,1.8-0.8,1.8-1.8V121C241,120,240.2,119.2,239.2,119.2
		L239.2,119.2z"/>
	<path class="st0" d="M228.7,135.5c2.8,0,4.9,1,5.8,2.8c0.3,0.8,1,1,2,1h3.9c0.7,0,1.3-0.7,1.3-1.5c0-4.4-5.4-8.6-13-8.6
		c-7.9,0-13,3.8-13,9.7c0,4.6,3.6,7.4,8.1,8.6c2,0.5,5.4,1.3,7.1,1.8c1.8,0.5,3.5,1,3.5,2.6c0,2.5-2.6,3.3-5.4,3.3
		c-2.6,0-5.3-1.3-6.1-3.1c-0.5-1.2-1.2-1.3-2.5-1.3h-3.9c-0.7,0-1.5,0.7-1.5,1.5v0.5c0,4.4,5.9,9,14,9c5.8,0,13.8-2.5,13.8-10.2
		c0-4.4-3.1-7.4-7.9-8.7c-2-0.5-6.4-1.6-7.4-1.8c-1.8-0.5-3.5-1.2-3.5-2.6C223.9,136.1,226.1,135.5,228.7,135.5L228.7,135.5z"/>
</g>
</svg>
