<?xml version="1.0" encoding="utf-8"?>
<!-- Generator: Adobe Illustrator 21.0.2, SVG Export Plug-In . SVG Version: 6.00 Build 0)  -->
<svg version="1.1" id="Layer_1" xmlns="http://www.w3.org/2000/svg" xmlns:xlink="http://www.w3.org/1999/xlink" x="0px" y="0px"
	 viewBox="0 0 450 280" style="enable-background:new 0 0 450 280;" xml:space="preserve">
<style type="text/css">
	.st0{clip-path:url(#SVGID_2_);fill:#010101;}
</style>
<g>
	<defs>
		<rect id="SVGID_1_" x="132" y="124.3" width="186" height="31.4"/>
	</defs>
	<clipPath id="SVGID_2_">
		<use xlink:href="#SVGID_1_"  style="overflow:visible;"/>
	</clipPath>
	<path class="st0" d="M141,155.3h-9v-30.5h15.5l17.8,22.7v-22.7h9v30.5H159L141,132.2V155.3 M217.1,145.9c0,4.2-0.7,5.7-2,7.1
		c-1.9,2.1-4.7,2.7-10,2.7h-15.3c-5.3,0-8.1-0.6-10-2.7c-1.2-1.4-2-2.9-2-7.1v-11.7c0-4.2,0.7-5.7,2-7.1c1.9-2.1,4.7-2.7,10-2.7
		h15.3c5.3,0,8.1,0.6,10,2.7c1.2,1.4,2,2.9,2,7.1V145.9 M204.7,148c2,0,2.8-0.1,3.3-0.6c0.5-0.4,0.7-1,0.7-2.7v-9.3
		c0-1.8-0.2-2.3-0.7-2.7c-0.5-0.4-1.2-0.6-3.3-0.6h-14.5c-2,0-2.8,0.1-3.3,0.6c-0.5,0.4-0.7,1-0.7,2.7v9.3c0,1.8,0.2,2.3,0.7,2.7
		c0.5,0.4,1.2,0.6,3.3,0.6H204.7 M230.1,155.3h-9.4v-30.5h9.4V155.3z M245.9,124.8h12.4l-16.7,14.2l18.8,16.2h-13.2l-17.1-15.9
		L245.9,124.8 M262.1,124.8h9.4v30.5h-9.4 M307.1,155.3l-2.8-5.3h-18.1l-2.7,5.3h-10.3l16.6-30.5h11.6l16.6,30.5H307.1 M289.5,143.4
		h11.6l-5.8-11L289.5,143.4"/>
</g>
</svg>
