<?xml version="1.0" encoding="utf-8"?>
<!-- Generator: Adobe Illustrator 21.0.2, SVG Export Plug-In . SVG Version: 6.00 Build 0)  -->
<svg version="1.1" id="Layer_1" xmlns="http://www.w3.org/2000/svg" xmlns:xlink="http://www.w3.org/1999/xlink" x="0px" y="0px"
	 viewBox="0 0 450 280" style="enable-background:new 0 0 450 280;" xml:space="preserve">
<g>
	<path d="M165.1,123.5h-44.4c-2.1,0-3.7,2-3.7,3.7v25.9c0,1.7,1.3,3.4,3.5,3.4h0.8c2.1,0,3.5-1.8,3.5-3.4v-5.9h40.4
		c2.1,0,3.7-2,3.7-3.7v-16.2C168.9,125.5,167.3,123.5,165.1,123.5 M161.1,140.1h-36.4v-8.9h36.4V140.1z"/>
	<path d="M219.3,123.5h-44.1c-2.1,0-3.7,2-3.7,3.7v12.6c0,1.8,1.6,3.7,3.7,3.7h40.1v5.3h-40.4c-1.7,0-3.4,1.3-3.4,3.5v0.8
		c0,2.1,1.8,3.5,3.4,3.5h44.4c2.1,0,3.7-2,3.7-3.7l0-25.6C223.1,125.5,221.5,123.5,219.3,123.5 M215.3,136.5h-36.1v-5.3h36.1V136.5z
		"/>
	<path d="M273.9,156.5c2.1,0,3.7-2,3.7-3.7v-1.3l-3.3,1.9v-26.7l3.3,1.9v-1.3c0-1.8-1.6-3.7-3.7-3.7h-44c-2.1,0-3.7,2-3.7,3.7
		l0,25.6c0,1.8,1.6,3.7,3.7,3.7L273.9,156.5z M269.2,148.8h-35.3l0-17.6h35.3V148.8z"/>
	<polygon points="276.9,148.9 292.7,140.1 292.9,140 276.9,131.1 	"/>
	<path d="M331.2,149.1l-16.4-9.2l16.4-9.2c1.6-0.9,2.4-3,1.4-4.8l-0.4-0.7c-1.2-2.1-3.6-2.1-4.8-1.4l-20.8,11.5l-20.8-11.5
		c-1.5-0.8-3.7-0.6-4.8,1.4l-0.4,0.7c-1,1.8-0.3,3.9,1.4,4.8l16.4,9.2l-16.4,9.2c-1.5,0.8-2.4,2.9-1.4,4.8l0.4,0.7
		c1.1,2,3.4,2.2,4.8,1.4l20.8-11.5l20.8,11.5c1.4,0.8,3.7,0.6,4.8-1.4l0.4-0.7C333.5,152.2,332.8,150.1,331.2,149.1"/>
</g>
</svg>
