<?xml version="1.0" encoding="utf-8"?>
<!-- Generator: Adobe Illustrator 21.0.2, SVG Export Plug-In . SVG Version: 6.00 Build 0)  -->
<svg version="1.1" id="Layer_1" xmlns="http://www.w3.org/2000/svg" xmlns:xlink="http://www.w3.org/1999/xlink" x="0px" y="0px"
	 viewBox="0 0 450 280" style="enable-background:new 0 0 450 280;" xml:space="preserve">
<g>
	<path d="M225,93.8c-51.3,0-93,20.6-93,46.2s41.7,46.2,93,46.2s93-20.8,93-46.2C318,114.4,276.3,93.8,225,93.8z M225,182.4
		c-49.1,0-88.8-19-88.8-42.4s39.7-42.4,88.8-42.4s88.8,19,88.8,42.4S274.1,182.4,225,182.4z"/>
	<g>
		<path d="M246.5,129.7c0.7-0.4,1.4-0.7,1.8-1.3c0.9-0.9,1.6-2.2,2.2-3.3c0.9-2.3,2.2-7.2-0.7-7.2h-1.8l-4.2,12.1h1.6
			C245.8,130.1,246.1,129.9,246.5,129.7z"/>
		<path d="M277.9,146h-1.4l-1.3,4h1.8C279.5,149.9,282.1,146,277.9,146z"/>
		<path d="M193.9,146h-1.4l-1.3,4h1.8C195.9,149.9,197.9,146,193.9,146z"/>
		<polygon points="202.8,127.2 202.4,122.3 199.5,127.2 		"/>
		<path d="M214,147c-1.4,1.8-2.3,4-2.7,6.1c-0.2,1.3,0,2.5,0.4,3.8c0.7,2,3.3,1.8,4.5,0.4c2.3-2.5,3.3-5.8,2.9-9.2
			C218.5,145.8,215.4,145.2,214,147z"/>
		<path d="M225,99.2c-48.2,0-87.2,18.2-87.2,40.8s39,40.8,87.2,40.8s87.2-18.2,87.2-40.8S273.2,99.2,225,99.2z M262,130.6l9-3.8
			h-7.8l2.2-5.8h15.2l-2.2,5.8l-17,5.8L262,130.6z M249.7,112c2.2,0,4.2,0.5,6.1,1.4c1.8,1.1,2.9,3.1,3.3,5.1
			c0.2,2.9-0.4,5.6-1.4,8.3c-1.1,2.5-2.9,4.9-5.2,6.5c-2,1.6-4.5,2.3-7,2.3h-10.8l7.4-21.3c0.2-0.7,0.2-1.6,0-2.3L249.7,112
			L249.7,112z M218.7,114.4c0.4-0.7,0.4-1.6,0-2.3h7.2l2,10.7l3.8-10.7h6.7l-8.7,23.7h-6.5l-1.8-10.3l-4.2,10.3h-6L218.7,114.4z
			 M201.3,112h7.2l1.3,23.7h-6.5l-0.4-3.1h-6.5l-2.2,3.1h-6.7l13.7-21.3C201.3,113.6,201.5,112.7,201.3,112z M178.4,114.4
			c0.2-0.7,0.2-1.6,0-2.3h8.1l-6.1,18.2h7l-2.3,5.4h-13.9L178.4,114.4z M177.5,148.7l-2.2,5.8h-15.2l2.2-5.8l17-5.8l-0.7,2l-9,3.8
			L177.5,148.7L177.5,148.7z M202.6,149.8c-0.5,1.4-1.4,2.7-2.9,3.6c-1.3,0.9-2.5,1.4-4,1.8l4.7,9h-7l-4.3-8.5l-3.1,8.5h-7l7.6-21.3
			c0.4-0.7,0.4-1.6,0-2.3h9.4c1.4,0,3.1,0.4,4.3,1.1c0.9,0.4,1.8,1.1,2.2,2.2C203.5,145.4,203.5,147.8,202.6,149.8z M223.4,158.6
			c-1.4,2-3.4,3.4-5.6,4.5c-2,0.9-4.3,1.3-6.7,0.9c-3.3-0.7-6-3.3-6.9-6.5c-0.7-2.3-0.5-4.9,0.2-7c1.4-4.7,5.1-8.3,9.6-10.1
			c2.7-0.9,5.8-0.5,8.1,1.1c1.8,1.3,3.1,3.3,3.6,5.4C227,151,226.1,155.3,223.4,158.6z M229,164l-0.5-21.3c0-0.7-0.2-1.6-0.5-2.3
			h7.2v12.8l8.5-12.8h7.8L233.8,164H229z M260,164h-15l7.2-20.8c0.4-0.9,0.4-2,0-2.9h15.9l-1.8,5.1h-7.6l-1.4,4.2h6l-2,5.2h-5.8
			c-0.5,1.3-0.9,2.7-1.3,4.2h7.8L260,164z M286.6,149.8c-0.5,1.4-1.4,2.7-2.9,3.6c-1.3,0.9-2.5,1.4-4,1.8l4.7,9h-7l-4.3-8.5
			l-3.1,8.5h-7l7.6-21.3c0.4-0.7,0.4-1.6,0-2.3h9.4c1.4,0,3.1,0.4,4.3,1.1c0.9,0.4,1.8,1.1,2.2,2.2
			C287.5,145.4,287.5,147.8,286.6,149.8z"/>
	</g>
</g>
</svg>
