<?xml version="1.0" encoding="utf-8"?>
<!-- Generator: Adobe Illustrator 21.0.2, SVG Export Plug-In . SVG Version: 6.00 Build 0)  -->
<svg version="1.1" id="Layer_1" xmlns="http://www.w3.org/2000/svg" xmlns:xlink="http://www.w3.org/1999/xlink" x="0px" y="0px"
	 viewBox="0 0 450 280" style="enable-background:new 0 0 450 280;" xml:space="preserve">
<style type="text/css">
	.st0{fill:#010101;}
</style>
<g>
	<path class="st0" d="M292.1,162l1,1.8l49.4,0.1l1-1.7l-16.9-8.6l-17.7,0L292.1,162z M319.8,134.6l8.9,15.5l15.7,10.6l1.1-1.9
		l-24.6-42.8l-2.2,0L319.8,134.6z M314.9,115.9l-24.8,42.7l1,1.8l15.6-10.4l8.9-15.4l1.2-18.7L314.9,115.9z"/>
	<g>
		<path class="st0" d="M250.9,145.9l0,6.4c0,7.4-5.1,11.6-12.3,11.8h-1.5c-7.1-0.3-12.2-4.5-12.2-11.9v-6.4
			c0-7.5,5.1-11.6,12.3-11.8c0.4,0,1.1,0,1.4,0C245.8,134.3,250.9,138.5,250.9,145.9 M237.4,140.2c-2.8,0.2-5.5,1.6-5.5,5.7v6.4
			c0,3.9,2.7,5.5,5.5,5.6c0.1,0,0.9,0,1,0c2.8-0.2,5.5-1.7,5.5-5.6l0-6.4c0-4-2.7-5.5-5.5-5.7C238,140.2,237.7,140.2,237.4,140.2"/>
		<path class="st0" d="M261.6,146.7c0,0,10.5-11.9,11.1-12.6l8.8,0l-12.7,14.4l13.4,14.8l-8.9,0l-11.6-12.9l0,12.9l-7,0l0.1-36.3
			l7,0L261.6,146.7z"/>
		<path class="st0" d="M162,150.9l0-5.1c0-7.5-5.2-11.6-12.3-11.9l-1.3,0c-7.2,0.2-12.3,4.4-12.3,11.8l0,6.3
			c0,7.1,5.3,11.5,12.1,11.9c0.7,0,1.1,0,1.6,0c8.6,0,11.8-4.3,12.2-9.3l-6.4,0c-0.2,0.9-0.5,3.3-5.9,3.3c-0.9,0-2.3-0.2-3.2-0.6
			c-4-1.3-3.4-6.3-3.4-6.5L162,150.9z M143,145.2c0-3.8,2.6-5.3,5.6-5.5c0.3,0,0.7,0,0.9,0c3.1,0.1,5.6,1.7,5.6,5.5v0.5l-12.1,0
			L143,145.2z"/>
		<path class="st0" d="M191.5,150.9l0-5.1c0-7.5-5.2-11.6-12.3-11.9h-1.3c-7.2,0.2-12.3,4.4-12.3,11.8l0,6.3
			c0,7.1,5.3,11.5,12.1,11.9c0.7,0,1.1,0,1.6,0c8.6,0,11.8-4.3,12.2-9.3l-6.4,0c-0.2,0.9-0.5,3.3-5.9,3.3c-0.9,0-2.2-0.2-3.2-0.6
			c-4-1.3-3.4-6.3-3.4-6.5L191.5,150.9z M172.5,145.3c0-3.8,2.6-5.3,5.6-5.5c0.3,0,0.7,0,1,0c3.1,0.1,5.6,1.7,5.6,5.5v0.5l-12.1,0
			L172.5,145.3z"/>
		<path class="st0" d="M209.1,134c-3.3,0-5.5,0.9-6.7,1.9l0-9.1l-7,0l-0.1,36.3h1.2c0,0,3.1-1.7,3.3-1.8c0.5,0.5,3.5,2.7,7.7,2.7
			c0.5,0,1,0,1.6,0c7.1-0.1,12.2-4.5,12.2-11.8l0-6.3C221.3,138.8,216.2,134,209.1,134 M214.3,152.3c0,4-2.8,5.5-5.5,5.6
			c-0.1,0-0.9,0-1,0c-2.8-0.2-5.5-1.7-5.5-5.6l0-6.4c0-4.1,2.7-5.5,5.5-5.7c0.3,0,0.6,0,1,0c2.8,0.2,5.5,1.7,5.5,5.7L214.3,152.3z"
			/>
		<path class="st0" d="M135.2,163l-13.4-15c0.7,0,1.3,0.1,2,0.1c4.6,0,10.4-2.9,10.4-10.3c0-8.9-7.3-11.1-13.9-11.1l-15.7,0
			l-0.1,36.3l7.1,0v-16.2l14.6,16.2L135.2,163z M111.6,132.9l8.5,0c3.9,0,7.4,1.2,7.4,5c0,3.7-2.2,5.1-7.4,5.1l-8.5,0L111.6,132.9z"
			/>
	</g>
</g>
</svg>
