<?xml version="1.0" encoding="utf-8"?>
<!-- Generator: Adobe Illustrator 21.0.2, SVG Export Plug-In . SVG Version: 6.00 Build 0)  -->
<svg version="1.1" id="Layer_1" xmlns="http://www.w3.org/2000/svg" xmlns:xlink="http://www.w3.org/1999/xlink" x="0px" y="0px"
	 viewBox="0 0 450 280" style="enable-background:new 0 0 450 280;" xml:space="preserve">
<style type="text/css">
	.st0{clip-path:url(#SVGID_2_);fill:#010101;}
</style>
<g>
	<defs>
		<rect id="SVGID_1_" x="80" y="121.1" width="290" height="37.8"/>
	</defs>
	<clipPath id="SVGID_2_">
		<use xlink:href="#SVGID_1_"  style="overflow:visible;"/>
	</clipPath>
	<polygon class="st0" points="327.8,158.9 335.1,158.9 335.1,143.7 361.7,143.7 361.7,158.9 369,158.9 369,136.1 327.8,136.1 	"/>
	<path class="st0" d="M334.3,128.7h28.1c3.9-0.8,6.8-4.2,7.6-7.6h-43.4C327.4,124.5,330.4,127.9,334.3,128.7"/>
	<path class="st0" d="M305.6,158.9c3.7-1.6,5.7-4.3,6.4-7.4h-32.8l0-30.3l-7.4,0v37.7H305.6"/>
	<path class="st0" d="M217.2,128.6h26c3.9-1.1,7.2-4.1,8-7.4H210v22.3h33.8v7.8l-26.5,0c-4.2,1.2-7.7,3.9-9.4,7.6l2.1,0h41V136
		h-33.7V128.6"/>
	<path class="st0" d="M153.1,128.7h28.1c3.9-0.8,6.8-4.2,7.6-7.6h-43.4C146.3,124.4,149.3,127.9,153.1,128.7"/>
	<path class="st0" d="M153.1,143.6h28.1c3.9-0.8,6.8-4.2,7.6-7.6h-43.4C146.3,139.3,149.3,142.8,153.1,143.6"/>
	<path class="st0" d="M153.1,158.9h28.1c3.9-0.8,6.8-4.2,7.6-7.6h-43.4C146.3,154.7,149.3,158.1,153.1,158.9"/>
	<path class="st0" d="M80,121.2c0.8,3.3,3.7,6.7,7.6,7.5h11.8l0.6,0.2v29.9h7.4v-29.9l0.7-0.2H120c4-1,6.8-4.2,7.6-7.5v-0.1
		L80,121.2L80,121.2"/>
</g>
</svg>
