<?xml version="1.0" encoding="utf-8"?>
<!-- Generator: Adobe Illustrator 21.0.2, SVG Export Plug-In . SVG Version: 6.00 Build 0)  -->
<svg version="1.1" id="Layer_1" xmlns="http://www.w3.org/2000/svg" xmlns:xlink="http://www.w3.org/1999/xlink" x="0px" y="0px"
	 viewBox="0 0 450 280" style="enable-background:new 0 0 450 280;" xml:space="preserve">
<style type="text/css">
	.st0{fill-rule:evenodd;clip-rule:evenodd;}
</style>
<path class="st0" d="M131.1,118.9c-8,0.5-15.1,2.6-20.7,6.3c-4.4,2.9-10.7,8.8-9.2,17.3c1.3,6.9,7.3,11.6,12.6,14.3
	c12.7,6.4,31.3,5.8,43.2-2c4.4-2.8,10.7-8.9,9.2-17.3c-1.3-6.9-7.2-11.6-12.6-14.3C147.6,120.2,139.1,118.4,131.1,118.9L131.1,118.9
	z M213.1,124.7c-4.9,0.3-7.4,1.4-10.5,4.6c-2.5,2.6-3.8,6.9-3.5,11.7c0.4,9.1,6.8,14.4,16.4,13.8c9-0.5,14.5-6.7,13.9-16.2
	c-0.3-4.4-1.7-7.6-4.7-10.4C222.1,125.9,217.7,124.4,213.1,124.7L213.1,124.7z M275.8,124.8c-5.2,0.4-7.9,2-10.3,4.8
	c-2.4,2.7-3.6,6.9-3.4,11.7c0.5,9.1,7,14.3,16.8,13.6c9-0.6,14.2-6.9,13.6-16.5c-0.3-3.2-1.2-6.1-3-8.4
	C286.2,125.9,281,124.4,275.8,124.8L275.8,124.8z M317.6,154.4h6.6c0.3-0.1,0.6-1.2,0.8-1.6l1.9-5l12.5,0l2.8,6.6h6.9l-12.5-29.1
	h-6.7L317.6,154.4L317.6,154.4z M141.8,139.3l-0.4,5.6c-0.6,4.3-1.6,7.7-3.8,11.4c-0.3,0.6-0.8,1.4-1.2,2c3.1,0.1,9.2-1.5,12.1-2.7
	c6.3-2.5,14.2-7.5,14.4-15.1c0.1-4.5-2.8-8-4.9-10c-0.2,0.2-0.4,0.6-0.6,0.9c-1.4,2.3-3.4,4-5.8,5.3
	C148.9,138.1,145.4,139,141.8,139.3L141.8,139.3z M130.9,158.3c-0.6-1.6-2.3-3.1-3.9-8.2c-0.8-2.9-1.4-7.5-1.4-10.7
	c-3.3-0.2-7.7-1.6-10.1-3.1c-2.1-1.2-3.9-2.7-5.2-4.6c-0.3-0.4-1.2-1.8-1.3-2c-2.5,2.5-4.4,6.6-4.2,10.4c0.2,2.2,0.8,4,1.7,5.7
	c0.5,0.8,1,1.6,1.5,2.2c1.2,1.4,2.3,2.6,3.8,3.7c2.2,1.7,4.4,2.9,7,4C122.5,157.1,126.6,158.1,130.9,158.3L130.9,158.3z
	 M242.5,154.4h6.4c0-3.4,0-6.7,0-10.1c0-2.5-0.4-1.7,1.2-3.9c0.8-1,1.3-2,2.1-3c0.1-0.2,8-11.8,8.2-12.2l-7.2,0
	c-0.4,0.1-6.7,11-7.3,11.4l-7.3-11.4h-7.5l11.2,16.6c0.3,0.5,0.2,1.5,0.2,2.4C242.5,147.6,242.5,151,242.5,154.4L242.5,154.4
	L242.5,154.4z M276.2,129.8c-6.1,0.7-7.9,5.7-7.5,11.2c0.1,1.4,0.4,2.6,0.8,3.8c2.3,6,11.5,6.7,14.7,1.5c1.9-3,2.2-8.2,0.8-11.6
	C283.7,131.2,280.2,129.3,276.2,129.8L276.2,129.8z M213.1,129.8c-5.5,0.7-7.9,5-7.5,11.2c0.2,1.9,0.6,3.8,1.7,5.3
	c3.2,4.7,10.6,4.8,13.9,0c1.3-2,1.8-4.9,1.6-7.7C222.5,132.7,218.8,129.1,213.1,129.8L213.1,129.8z M172.2,125.7v4.4
	c0.9,0.1,7.7,0,9.3,0l0,24.2h6.4v-24.2l9.2,0v-4.9h-24.9V125.7L172.2,125.7z M295.1,130.2h9.2l0.1,24.2h6.3v-24.2
	c1.3,0,8.7,0.1,9.3,0l0-4.9c-0.8-0.2-23.5,0-24.9,0L295.1,130.2L295.1,130.2z M113.4,126.9c0.8,1.7,3.3,3.9,4.9,5
	c1.5,1,5,2.6,7.5,2.6c0.2-0.5,0.3-1.5,0.3-2.1c0.8-4.2,2.3-7.9,5.7-10.5c0.3-0.2,0.4-0.3,0.7-0.5c-3.2,0.1-7.8,0.8-10.7,1.5
	C119.1,123.5,115,125.1,113.4,126.9L113.4,126.9L113.4,126.9z M141.6,134.5c0.9,0.1,3.3-0.5,4.1-0.7c2.4-0.8,4.4-2,6.2-3.7
	c0.3-0.4,2-2.3,2.2-2.8c-0.3-0.1-0.6-0.4-0.9-0.6c-2.5-1.5-4.5-2.5-7.5-3.4c-3.4-1.1-6.9-1.6-10.7-1.8c0.1,0.2,0,0.1,0.2,0.2
	c0,0,0.1,0.1,0.2,0.1c0.1,0.1,0.2,0.1,0.3,0.3c0.3,0.2,0.3,0.3,0.7,0.6c1.4,1.5,2.1,2,3.2,4.2C140.7,128.9,141.4,131.7,141.6,134.5
	L141.6,134.5z M133.6,151.7c4.4,0,4.9-7.6,5-11.9c-5.5,0.4-4.5,0.5-10.1,0C128.6,143.9,129.4,151.7,133.6,151.7L133.6,151.7z
	 M129,134.7c1.2,0.6,8.2,0.6,9.4,0c-0.1-3.3-1.4-8.6-4.8-8.6c-1.8,0-2.9,1.7-3.5,3.1C129.6,130.2,128.8,133.6,129,134.7L129,134.7z
	 M328.9,142.8h8.5l-4.3-10.7L328.9,142.8L328.9,142.8z"/>
</svg>
