<?xml version="1.0" encoding="utf-8"?>
<!-- Generator: Adobe Illustrator 21.0.2, SVG Export Plug-In . SVG Version: 6.00 Build 0)  -->
<svg version="1.1" id="Layer_1" xmlns="http://www.w3.org/2000/svg" xmlns:xlink="http://www.w3.org/1999/xlink" x="0px" y="0px"
	 viewBox="0 0 450 280" style="enable-background:new 0 0 450 280;" xml:space="preserve">
<style type="text/css">
	.st0{clip-path:url(#SVGID_2_);fill:#010101;}
</style>
<g>
	<defs>
		<rect id="SVGID_1_" x="126" y="91.8" width="198" height="95.6"/>
	</defs>
	<clipPath id="SVGID_2_">
		<use xlink:href="#SVGID_1_"  style="overflow:visible;"/>
	</clipPath>
	<path class="st0" d="M258.6,152.8c-0.4-0.5,0.1-1.2,0.1-1.2h-26.3l2.9,2.6c0.6,0.3,1.5,0.9,1.8,1.9c0.9,2.3-0.4,0.4-0.4,4
		c0,3.2-0.9,2.7-0.9,2.7s-0.2,3.8-2.2,6.2c-1.3,1.3-0.3,2.3-0.3,2.3s-0.4,0.2-1,3c-0.2,0.9,1,2.3,2,1.9c0.7-0.3-1.8-0.5,1-1.7
		c1.1-0.5,0.2-1.3,0.2-1.3s1.8-0.1,2.8-2.9c1.8,0.3,1.1-0.8,4.8-1.6c1-0.2,1.2-0.5,1.1-1.4c-0.1-0.9,1.2,0.1,4.9-3.6
		c2.9-2.9,1.8-3.6,3.8-4.7c2.1-1.1,2.3,0.1,3-0.8c1.6-2.1,1-2,1.7-3.3l0.5-0.7C258,154.2,259,153.3,258.6,152.8 M270.7,153.9
		c-6,18.8-23.1,33.5-44.6,33.5c-22.9,0-38.2-14.5-44.4-33.1c6.4,17.4,23.9,29.8,44.4,29.8C246.8,184.1,264.4,171.4,270.7,153.9
		 M233.4,122.7c-1.6,0-1.6-1.3-2.8-1c-1.1,0.2-0.9-1-1.8-1c-0.6,0-1.5-0.3-1.8,0.1c-0.5,0.7,0.5-0.3,1.6,0.6
		c1.5,1.3,1.4,0.4,2.3,1.1c0.6,0.5,0.1,0.7,0.5,0.6c0.6-0.3,1.7,0.2,1.7,0.2S235.1,122.7,233.4,122.7 M239.6,125.1
		c0.2,0,0.6-0.1,0.6-0.3c-0.2-0.1-0.4-0.3-0.7-0.2L239.6,125.1 M234.4,124.5h0.4c0.3-0.1,0.5,0.3,0.6,0.5c0.9-0.7,1.9-0.5,2.8-0.7
		c-0.9-0.4-1.7-1.1-2.8-1.2C233.9,123.1,235.2,123.8,234.4,124.5 M226.1,91.8c-24,0-38.4,14.5-44.5,33.3c4.8-13.2,15.9-23.6,30-27.9
		c-0.2,0.1-0.3,0.3-0.3,0.4c-1.3,0.8-0.9,1.7-1.5,2c-1.1,0.4-2.3,3.8-2.3,3.8s0.7,0.5-1.5,2.9c-1.8,2-2.3,5.1-2.3,5.1s1.2,2.2,1,4.7
		c-0.2,1.9-0.3,0.5,0.6,1.9c0.5,0.8,1,3.6,1.3,2.5c0.6-2.1-1.1-4.1-0.8-6.1c0.1,0.3,0.7-0.8,0.6,0.2c-0.1,2.6,3.2,7.6,3.2,7.6
		s-1.2,1.2,0.1,1.2l-0.3,0.8c0,0,0.9-0.1,1.5,0.4c0.6,0.5,1.1,1.1,1.7,1.1h9.3c0,0,0.7-2.8,1.2-3.3c0.5-0.5-1.1,0-1.6-0.5
		c-0.5-0.5-0.8,0.4-1,0.9c-0.2,0.5-0.5,1.3-1.3,1.6c-0.7,0.2-2.5,0.4-2.8,0.4c-0.4,0-1.4-2.1-1.4-2.1c-1-1.6-0.2-3.5,0.8-5.4
		c0.8-1.4,2.9-2,4.8-1.3c2.1-1.6,2.6,0.1,4.4-0.7c2.4-1.1,1.1,2.8,3.4,3.8c1-2.6-2.2-4.5-0.2-5.8c1.4-0.9,2.5-1.4,3.1-2.6
		c0.8-1.7,1.2-2.9,1.8-3.1c1.5-0.5,1.2-1.9,1.2-1.9s1.6,0.5,2.8-0.7c-0.9-0.5-2.3-0.9-1.9-1.9c0.4-1.2,3.6,1.2,4.5-0.7
		c-1.9-0.8-3.8-2.6-5-3c-0.8,0.9-1.3,0.5-2.3-0.3c-1.7-1.4-1.9-0.1-3-1c-0.9,1.7,0.4,1.6,0.8,2c1.1,1.2-1.1-1.1-0.9,2
		c0.1,0.8-1.1,1-2-0.8c-0.5-0.9-4.1-0.7-4.7-1.6c0.5-1,4.8-4.6,11.5-3.8c-0.2-0.1-0.4-0.1-0.6-0.2c17.5,2.6,31.8,14.4,37.3,29.9
		C264.8,106.5,248.4,91.8,226.1,91.8"/>
	<path class="st0" d="M145.7,129.7h-7.3l1.1,1.3v9.6c0,2.2-1.4,3.1-3.6,3.1c-2.1,0-3.6-0.9-3.6-3.1V131l1.1-1.3H126l1.1,1.3v9.8
		c0,4.8,2.7,6.7,8.7,6.7c6,0,8.7-1.9,8.7-6.7V131L145.7,129.7"/>
	<polygon class="st0" points="171.1,129.7 164.9,129.7 166,131 166,139.8 157.2,129.7 151.6,129.7 152.7,131 152.7,145.8 
		151.6,147.1 157.8,147.1 156.7,145.8 156.7,136.9 166.1,147.1 170,147.1 170,131 	"/>
	<polygon class="st0" points="185.4,147.1 184.3,145.8 184.3,131 185.4,129.7 178,129.7 179.1,131 179.1,145.8 178,147.1 	"/>
	<polygon class="st0" points="209.7,129.7 203.5,129.7 204.6,131 200.2,140.6 196,131 197.1,129.7 189.8,129.7 197.9,147.1 
		201.5,147.1 	"/>
	<polygon class="st0" points="230.4,147.1 230.4,142.4 229.1,143.5 220.2,143.5 220.2,140.1 225.9,140.1 227.2,141.2 227.2,135.6 
		225.9,136.7 220.2,136.7 220.2,133.3 229.1,133.3 230.4,134.4 230.4,129.7 214.1,129.7 215.2,131 215.2,145.8 214.1,147.1 	"/>
	<path class="st0" d="M255.4,147.1l-4.7-6.9c2.3-0.9,3.9-2.7,3.9-5.3c0-2.9-1.8-5.3-6.7-5.3H237l1.1,1.3v14.8l-1.1,1.3h7.3l-1.1-1.3
		v-4.9h2.2l3.3,4.9l-1.1,1.3H255.4z M249.4,135.3c0,1.3-1.2,2.3-2.9,2.3h-3.3v-4.3h3.9C248.3,133.3,249.4,133.9,249.4,135.3"/>
	<path class="st0" d="M277.4,142c0-2.8-2.2-4.3-5.4-5.4c-2.1-0.7-5-1.1-5-2.5c0-0.7,0.8-1.1,2.2-1.1c1.9,0,5,0.8,7.4,1.9v-5.8
		l-1.4,1.3c-1.5-0.6-4-1.2-5.8-1.2c-5.9,0-7.8,2.6-7.8,5c0,3.2,2.1,4.6,5.5,5.8c2.5,0.9,4.8,0.9,4.8,2.4c0,1.2-1.4,1.4-2.2,1.4
		c-1.8,0-5.1-0.7-8.1-2.6v6.4l1.4-1.5c1.3,0.5,4.4,1.4,6.9,1.4C275.1,147.6,277.4,145.3,277.4,142"/>
	<path class="st0" d="M303.5,147.1l-8.6-17.4H289l0.6,1.3l-7.8,16.1h6.4l-1.1-1.3l0.9-1.8h8.3l0.9,1.8l-1.1,1.3H303.5z M295.1,140.8
		h-5.8l2.9-6.2L295.1,140.8"/>
	<polygon class="st0" points="324,147.1 324,142.4 322.7,143.5 314.4,143.5 314.4,131 315.5,129.7 308.2,129.7 309.3,131 
		309.3,145.8 308.2,147.1 	"/>
	<path class="st0" d="M319.4,132.2c0,1.2,1,2.2,2.2,2.2c1.2,0,2.2-1,2.2-2.2c0-1.2-1-2.2-2.2-2.2C320.4,130,319.4,131,319.4,132.2
		 M319.2,132.2c0-1.3,1.1-2.4,2.4-2.4c1.3,0,2.4,1.1,2.4,2.4s-1.1,2.4-2.4,2.4C320.3,134.6,319.2,133.5,319.2,132.2"/>
	<path class="st0" d="M322.5,131.2c-0.2-0.2-0.5-0.3-0.8-0.3c-0.7,0-1.3,0.6-1.3,1.2c0,0.7,0.5,1.3,1.2,1.3c0.3,0,0.6-0.1,0.9-0.3
		v-0.3c-0.2,0.3-0.5,0.4-0.9,0.4c-0.6,0-1-0.5-1-1c0-0.5,0.4-1,1-1c0.3,0,0.6,0.1,0.9,0.4V131.2"/>
</g>
</svg>
