<?xml version="1.0" encoding="utf-8"?>
<!-- Generator: Adobe Illustrator 21.0.2, SVG Export Plug-In . SVG Version: 6.00 Build 0)  -->
<svg version="1.1" id="Layer_1" xmlns="http://www.w3.org/2000/svg" xmlns:xlink="http://www.w3.org/1999/xlink" x="0px" y="0px"
	 viewBox="0 0 450 280" style="enable-background:new 0 0 450 280;" xml:space="preserve">
<style type="text/css">
	.st0{clip-path:url(#SVGID_2_);fill:#010101;}
</style>
<g>
	<defs>
		<rect id="SVGID_1_" x="179.5" y="92.5" width="91" height="95"/>
	</defs>
	<clipPath id="SVGID_2_">
		<use xlink:href="#SVGID_1_"  style="overflow:visible;"/>
	</clipPath>
	<path class="st0" d="M225,92.5c-2.2,0.5-21.8,3-24.2,4.3c-0.6,1.1-1.7,4.6-2.1,5.2c-1.6,0.3-7.9,1.6-8.3,1.8
		c-0.2,0.7-1.7,3.6-2,3.9c-1.3,0.3-7.6,1.5-8.4,2.1c-0.4,2.7-2.2,29.7,9.1,47.3c11.2,17.6,30.9,29.4,36,30.5h0
		c5.2-1.1,24.8-12.9,36-30.5c11.2-17.6,9.6-44.6,9.1-47.3c-0.8-0.6-7.1-1.7-8.4-2.1c-0.3-0.3-1.8-3.2-2-3.9
		c-0.4-0.2-6.8-1.4-8.3-1.8c-0.4-0.6-1.5-4.1-2.1-5.2C246.8,95.5,227.2,93,225,92.5 M225,99.4c1.9,0.4,18.7,2.6,20.7,3.7
		c0.5,1,1.5,3.9,1.8,4.4c1.3,0.3,6.8,1.3,7.2,1.5c0.2,0.6,1.4,3.1,1.7,3.4c1.2,0.3,6.5,1.3,7.2,1.7c0.4,2.3,1.8,25.3-7.8,40.4
		c-9.6,15.1-26.4,25.1-30.8,26.1h0c-4.4-1-21.2-11-30.8-26.1c-9.6-15.1-8.2-38.1-7.8-40.4c0.7-0.5,6.1-1.5,7.2-1.7
		c0.3-0.3,1.5-2.8,1.7-3.4c0.3-0.2,5.8-1.2,7.1-1.5c0.3-0.5,1.3-3.5,1.8-4.4C206.4,102,223.1,99.8,225,99.4"/>
	<path class="st0" d="M228.1,106.8c-0.6,0.1-0.7,0.5-0.7,0.7c-0.1,21.6-0.1,44.5-0.2,66.6c0.1,0.7,1.3-0.4,1.9-0.7
		c8.2-4.5,33.7-29.2,19-38.1c11.2-7.3,9.2-14.4,4.3-18.2c-10.3-7.9-22-9.9-23.4-10.2C228.5,106.8,228.3,106.7,228.1,106.8
		 M234.9,115.6c0.2-0.1,6.8,2.4,10.4,4.8c4.1,2.8,2.7,5.5,0.3,7.2c-1.3,0.9-9.4,6.7-10.8,7C234.8,133.6,234.8,120.9,234.9,115.6
		 M240.9,140.3c0.9,0,1.8,0.3,2.4,1c0.6,0.5,3,3.2-2.2,10.8c-2,3.5-6.1,7.8-6.5,8.2c-0.1,0-0.1-0.1-0.1,0c0-2.5,0-14.5,0.1-17.8
		C234.9,142.3,238.2,140.2,240.9,140.3"/>
	<path class="st0" d="M200.2,114.5c-0.7,0.3-6.4,3.9-7,4.5c-0.2,5.1,1.2,18.8,6.2,29.5c0.6,1.4,1.3,2.6,2.1,3.8
		c1.4,2.5,1.5,2.3,3.2-0.1c1.2-1.6,2.8-3.9,3.2-4.4c0.6,1.9,4.3,13.9,9.5,21.1c2.3,3.2,5.9,6.2,5.9,5c-0.1-12.2-0.5-65.1-0.1-67.3
		c-1.5,0-6.6,0.6-7.6,1.1c-0.1,1.9,0.7,38.2,0.2,42.4c-3.5-8.6-4.8-31.4-4.1-40.9c-1.9,0.4-6.6,2.3-7.3,2.9
		c-0.9,1.7,0.3,20.7,1.5,27c-0.4,0.7-1.6,2.5-1.8,2.7C201.8,137.7,199.4,124.2,200.2,114.5"/>
</g>
</svg>
