<?xml version="1.0" encoding="utf-8"?>
<!-- Generator: Adobe Illustrator 21.0.2, SVG Export Plug-In . SVG Version: 6.00 Build 0)  -->
<svg version="1.1" id="Layer_1" xmlns="http://www.w3.org/2000/svg" xmlns:xlink="http://www.w3.org/1999/xlink" x="0px" y="0px"
	 viewBox="0 0 450 280" style="enable-background:new 0 0 450 280;" xml:space="preserve">
<style type="text/css">
	.st0{fill:#010101;}
</style>
<g>
	<g>
		<path class="st0" d="M203.3,111.9h-30v0c-2.1,0-3.8,1.7-3.8,3.9c0,2.1,1.7,3.9,3.8,3.9v0h17c1.5,0,2.7,1.2,2.7,2.7
			c0,0.5-0.2,1.1-0.4,1.5c0,0-24.2,38.1-24.2,38.1c-0.1,0.1-0.2,0.2-0.2,0.4l0,0l0,0c-0.3,0.6-0.5,1.2-0.5,1.9
			c0,2.1,1.7,3.8,3.8,3.9v0h32v0c2.1,0,3.8-1.8,3.8-3.9s-1.7-3.8-3.8-3.9l-0.1,0h-18.8c-1.5,0-2.7-1.2-2.7-2.7
			c0-0.5,0.1-0.9,0.3-1.3l24.5-38.5l0,0c0.4-0.6,0.6-1.3,0.6-2C207.1,113.7,205.4,111.9,203.3,111.9"/>
		<path class="st0" d="M243.9,111.9C243.9,111.9,243.9,111.9,243.9,111.9l-29.9,0h0c-2.1,0-3.9,1.7-3.9,3.9c0,2.1,1.7,3.9,3.9,3.9
			c0,0,0,0,0,0v0h6.8c2.1,0,3.9,1.7,3.9,3.9v40.1c0,0,0,0,0,0c0,2.4,1.9,4.4,4.4,4.4c2.4,0,4.4-1.9,4.4-4.4v-40.2
			c0-2.1,1.7-3.9,3.9-3.9h6.7v0c2.1,0,3.9-1.7,3.9-3.9S246,111.9,243.9,111.9"/>
		<path class="st0" d="M278.6,160.3c0,0-15.4,0-15.4,0c-2.1,0-3.9-1.7-3.9-3.8v-8.7c0,0,0,0,0,0c0-2.1,1.7-3.9,3.9-3.9c0,0,0,0,0,0
			h12.6c2.1,0,3.9-1.7,3.9-3.9c0-2.1-1.7-3.9-3.9-3.9h-12.6c-2.1,0-3.8-1.7-3.8-3.9c0,0,0,0,0,0v-8.7c0-2.1,1.8-3.8,3.9-3.8
			c0,0,0,0,0,0h15.5v0c2.1,0,3.8-1.7,3.8-3.9s-1.7-3.8-3.8-3.9v0h-24.2c-2.1,0-3.9,1.7-3.9,3.9c0,0.1,0,0.1,0,0.2v48
			c0,0.1,0,0.1,0,0.2c0,2.1,1.7,3.8,3.8,3.9v0h24.2c2.1,0,3.8-1.8,3.8-3.9C282.5,162,280.8,160.3,278.6,160.3"/>
	</g>
</g>
</svg>
