<?xml version="1.0" encoding="utf-8"?>
<!-- Generator: Adobe Illustrator 21.0.2, SVG Export Plug-In . SVG Version: 6.00 Build 0)  -->
<svg version="1.1" id="Layer_1" xmlns="http://www.w3.org/2000/svg" xmlns:xlink="http://www.w3.org/1999/xlink" x="0px" y="0px"
	 viewBox="0 0 200 200" style="enable-background:new 0 0 200 200;" xml:space="preserve">
<g>
	<g>
		<g>
			<g>
				<path d="M119.3,78.9l-7,29.2c-0.5,2.3-0.7,4.4-0.7,4.4h0c-0.1,0-0.1-2.1-0.7-4.4l-7.5-29.2h-6.7L89,108.1
					c-0.7,2.4-0.7,4.4-0.7,4.4h-0.1c0,0-0.2-2.1-0.7-4.4l-5-21.9l-3.8,16l4.7,18.9h8.9L98.7,96c0.7-2.8,1.1-5.5,1.1-5.5h0.1
					c0,0,0.4,2.8,1.1,5.5l6.4,25.1h8.9l10.9-42.3L119.3,78.9L119.3,78.9z"/>
			</g>
			<g>
				<path d="M167.1,78.9l-7,29.2c-0.5,2.3-0.7,4.4-0.7,4.4h-0.1c-0.1,0-0.1-2.1-0.7-4.4L151,78.9h-6.7l-7.6,29.2
					c-0.7,2.4-0.7,4.4-0.7,4.4h-0.1c0,0-0.2-2.1-0.7-4.4l-5-21.9l-3.8,16l4.9,19h8.9l6.4-25.1c0.7-2.8,1.1-5.5,1.1-5.5h0.1
					c0,0,0.4,2.8,1.1,5.5l6.4,25.1h8.9L175,78.9L167.1,78.9L167.1,78.9z"/>
			</g>
			<g>
				<path d="M63.1,108.1c0.7,2.4,0.7,4.4,0.7,4.4h0.1c0,0,0.2-2.1,0.7-4.4l6.9-29.2h8l-10.9,42.3h-8.9l-6.4-25.1
					c-0.7-2.8-1.1-5.5-1.1-5.5h-0.1c0,0-0.4,2.8-1.1,5.5l-6.4,25.1h-8.9L25,78.9h8l6.7,29.2c0.5,2.3,0.7,4.4,0.7,4.4h0.1
					c0.1,0,0.1-2.1,0.7-4.4l7.6-29.2h6.7L63.1,108.1z"/>
			</g>
		</g>
	</g>
</g>
</svg>
