<?xml version="1.0" encoding="utf-8"?>
<!-- Generator: Adobe Illustrator 21.0.2, SVG Export Plug-In . SVG Version: 6.00 Build 0)  -->
<svg version="1.1" id="Layer_1" xmlns="http://www.w3.org/2000/svg" xmlns:xlink="http://www.w3.org/1999/xlink" x="0px" y="0px"
	 viewBox="0 0 63 63" style="enable-background:new 0 0 63 63;" xml:space="preserve">
<style type="text/css">
	.st0{clip-path:url(#SVGID_2_);}
</style>
<g>
	<g>
		<defs>
			<rect id="SVGID_1_" width="63" height="63"/>
		</defs>
		<clipPath id="SVGID_2_">
			<use xlink:href="#SVGID_1_"  style="overflow:visible;"/>
		</clipPath>
		<g class="st0">
			<path d="M31.5,63C14.1,63,0,48.9,0,31.5C0,14.1,14.1,0,31.5,0S63,14.1,63,31.5C63,48.9,48.9,63,31.5,63z M31.5,5.9
				C17.4,5.9,5.9,17.4,5.9,31.5s11.5,25.6,25.6,25.6c14.1,0,25.6-11.5,25.6-25.6S45.6,5.9,31.5,5.9z"/>
		</g>
		<g class="st0">
			<path d="M53.9,31.5H48C48,22.4,40.6,15,31.5,15S15,22.4,15,31.5H9.1c0-12.4,10.1-22.4,22.4-22.4C43.9,9.1,53.9,19.1,53.9,31.5z"
				/>
		</g>
	</g>
</g>
</svg>
