<?xml version="1.0" encoding="utf-8"?>
<!-- Generator: Adobe Illustrator 21.0.2, SVG Export Plug-In . SVG Version: 6.00 Build 0)  -->
<svg version="1.1" id="Layer_1" xmlns="http://www.w3.org/2000/svg" xmlns:xlink="http://www.w3.org/1999/xlink" x="0px" y="0px"
	 viewBox="0 0 200 200" style="enable-background:new 0 0 200 200;" xml:space="preserve">
<g>
	<g id="Page-1">
		<g id="logo">
			<g id="Group">
				<g id="Shape">
					<polygon points="62.9,109.5 62.9,109.5 44,90.7 62.9,71.9 44,71.9 25,90.7 34.6,100.1 44,109.5 53.5,118.7 					"/>
				</g>
				<g id="Shape_1_">
					<polygon points="76.4,100.1 67,90.7 57.5,81.3 48.2,90.7 67,109.5 67,109.5 67,109.5 48.1,128.1 67,128.1 76.4,118.9 
						85.9,109.5 					"/>
				</g>
			</g>
		</g>
	</g>
	<g>
		<path d="M108.3,107.5c-0.8,0.4-2.5,0.8-4.8,0.8c-6.4,0-9.7-4-9.7-9.3c0-6.3,4.5-9.8,10.1-9.8c2.2,0,3.8,0.4,4.6,0.8l-0.9,3.3
			c-0.9-0.4-2-0.7-3.5-0.7c-3.3,0-5.9,2-5.9,6.1c0,3.7,2.2,6,5.9,6c1.3,0,2.7-0.3,3.5-0.6L108.3,107.5z"/>
		<path d="M111.2,103.8c1.1,0.6,2.9,1.2,4.6,1.2c1.9,0,2.9-0.8,2.9-2c0-1.2-0.9-1.8-3.1-2.6c-3.1-1.1-5.1-2.8-5.1-5.5
			c0-3.2,2.6-5.6,7-5.6c2.1,0,3.6,0.4,4.7,0.9l-0.9,3.4c-0.7-0.4-2.1-0.9-3.9-0.9c-1.8,0-2.7,0.8-2.7,1.8c0,1.2,1,1.7,3.4,2.6
			c3.3,1.2,4.8,2.9,4.8,5.5c0,3.1-2.4,5.7-7.5,5.7c-2.1,0-4.2-0.5-5.3-1.1L111.2,103.8z"/>
		<path d="M126,103.8c1.1,0.6,2.9,1.2,4.6,1.2c1.9,0,2.9-0.8,2.9-2c0-1.2-0.9-1.8-3.1-2.6c-3.1-1.1-5.1-2.8-5.1-5.5
			c0-3.2,2.6-5.6,7-5.6c2.1,0,3.6,0.4,4.7,0.9l-0.9,3.4c-0.7-0.4-2.1-0.9-3.9-0.9c-1.8,0-2.7,0.8-2.7,1.8c0,1.2,1,1.7,3.4,2.6
			c3.3,1.2,4.8,2.9,4.8,5.5c0,3.1-2.4,5.7-7.5,5.7c-2.1,0-4.2-0.5-5.3-1.1L126,103.8z"/>
		<path d="M140.7,89.8c1.5-0.2,3.5-0.4,5.7-0.4c3.5,0,5.8,0.6,7.6,2c1.9,1.4,3.1,3.7,3.1,7c0,3.5-1.3,6-3.1,7.5
			c-2,1.6-4.9,2.4-8.6,2.4c-2.2,0-3.7-0.1-4.8-0.3V89.8z M144.9,104.9c0.4,0.1,0.9,0.1,1.5,0.1c3.8,0,6.3-2.1,6.3-6.5
			c0-3.8-2.2-5.9-5.8-5.9c-0.9,0-1.5,0.1-1.9,0.2V104.9z"/>
		<path d="M163.8,103.3l-1.3,4.8h-4.3l5.7-18.5h5.5l5.7,18.5h-4.5l-1.4-4.8H163.8z M168.5,100.2l-1.2-3.9c-0.3-1.1-0.7-2.5-0.9-3.6
			h-0.1c-0.3,1.1-0.5,2.5-0.9,3.6l-1.1,3.9H168.5z"/>
	</g>
</g>
</svg>
