<?xml version="1.0" encoding="utf-8"?>
<!-- Generator: Adobe Illustrator 21.0.2, SVG Export Plug-In . SVG Version: 6.00 Build 0)  -->
<svg version="1.1" id="Layer_1" xmlns="http://www.w3.org/2000/svg" xmlns:xlink="http://www.w3.org/1999/xlink" x="0px" y="0px"
	 viewBox="0 0 200 200" style="enable-background:new 0 0 200 200;" xml:space="preserve">
<g>
	<path d="M152.9,84.4c0.6,0,1.1,0.1,1.6,0.4c1,0.6,1.7,1.6,1.7,2.9v0v9.3h9c1.8,0,3.3,1.5,3.3,3.3c0,1.8-1.5,3.3-3.3,3.3h-9v8.8
		c0,1.8-1.5,3.3-3.3,3.3c-0.4,0-25,0-25,0c-1.8,0-3.3-1.5-3.3-3.3V100h0c0.1-1.7,1.5-3.1,3.3-3.1h21.7v-6h-25l-11.9,22.1
		c-0.2,1-0.8,1.9-1.8,2.3c-0.5,0.2-0.9,0.3-1.4,0.3c-1.1,0-2.2-0.6-2.8-1.6c-0.1-0.2-0.2-0.4-0.3-0.6L97,95l-9.5,18
		c-0.4,1-1,1.8-2,2.3c-0.5,0.2-0.9,0.3-1.4,0.3c-1.1,0-2.2-0.6-2.8-1.6c-0.1-0.2-0.2-0.4-0.3-0.6L69.5,90.9H50.4v6h15.5
		c1.8,0,3.3,1.5,3.3,3.3c0,1.8-1.5,3.3-3.3,3.3H50.4v9c0,1.8-1.5,3.3-3.3,3.3c-1.8,0-3.3-1.5-3.3-3.3v-9h-9c-1.8,0-3.3-1.5-3.3-3.3
		c0-1.8,1.5-3.3,3.3-3.3h9v-9.3v0c0-1.2,0.7-2.3,1.7-2.9c0.5-0.3,1-0.4,1.6-0.4h24.3c0.5,0,1,0.1,1.5,0.4c0.7,0.3,1.3,0.8,1.6,1.6
		l9.6,18.9l9.6-18c0.5-1,0.8-1.9,1.8-2.4c0.5-0.2,0.9-0.3,1.4-0.3c0.8,0,1.6,0.3,2.2,0.8c0.6,0.5,0.9,0.8,1.3,1.6l9.1,18.3
		l10.2-18.9c0.3-0.5,0.6-0.8,1-1.1c0.6-0.5,1.3-0.8,2.1-0.8H152.9 M131,108.9h18.6v-5.5H131V108.9 M152.9,77.7h-30.1
		c-2.2,0-4.3,0.7-6,2.1c-1.2,0.8-2.2,1.9-2.9,3.2l0,0.1l0,0.1l-4.2,7.7c0,0-4.8-9.4-6.2-10.6c-1.8-1.6-4.1-2.4-6.5-2.4
		c-1.5,0-3,0.3-4.3,1c-2.6,1.2-4,3.5-5.2,6.2l-3.1,5.8l-3.8-7.5c-1-2-2.7-3.7-4.7-4.6c-1.3-0.7-2.8-1-4.3-1H47.1
		c-1.6,0-3.3,0.4-4.7,1.2c-3.2,1.7-5.2,5.1-5.2,8.7v2.6h-2.3c-5.5,0-9.9,4.5-9.9,9.9c0,5.5,4.5,9.9,9.9,9.9h2.3v2.3
		c0,5.5,4.5,9.9,9.9,9.9c5.5,0,9.9-4.5,9.9-9.9v-2.3h8.8c1.9,0,3.7-0.5,5.2-1.5l3.9,7.6c0.2,0.4,0.4,0.9,0.7,1.3
		c1.8,2.9,5,4.8,8.5,4.8c1.5,0,3-0.3,4.3-1c2.4-1.2,4.5-3.1,5.6-5.6l2.8-6.3l3.5,6.9c0.2,0.4,0.4,0.9,0.7,1.3c1.8,2.9,5,4.8,8.5,4.8
		c1.5,0,3-0.3,4.3-1c2.3-1.1,4-3,4.9-5.3c1.5,3.6,5,6.2,9.2,6.2l25,0c5.5,0,9.9-4.3,9.9-9.7v-2.3h2.3c5.5,0,9.9-4.5,9.9-9.9
		c0-5.5-4.5-9.9-9.9-9.9h-2.3v-2.6c0-3.6-2-7-5.2-8.7C156.1,78.1,154.5,77.7,152.9,77.7L152.9,77.7z"/>
</g>
</svg>
