<?xml version="1.0" encoding="utf-8"?>
<!-- Generator: Adobe Illustrator 21.0.2, SVG Export Plug-In . SVG Version: 6.00 Build 0)  -->
<svg version="1.1" id="Layer_1" xmlns="http://www.w3.org/2000/svg" xmlns:xlink="http://www.w3.org/1999/xlink" x="0px" y="0px"
	 viewBox="0 0 200 200" style="enable-background:new 0 0 200 200;" xml:space="preserve">
<g>
	<g>
		<path d="M25,104.2v6.7C76.5,107.8,38.2,106.2,25,104.2z"/>
		<path d="M25,115.2v6.5l0.4,0.1C64.7,118.2,53.4,116.9,25,115.2z"/>
		<path d="M25,57.3v21.5c32.3-1.1,32.5-2.9,15.7-5.1l3-3.7c20.7,3.2,19.4,8.4,4.5,11c5,1.7,22.6,5,1.3,11.4c3.5,0.9,23,5.8-1.3,10.1
			c3.9,1.7,24.3,4.2,0.9,10.5c6.1,1,21.7,4.3,1.1,11c7.8,0.8,8.7,1.1,10.8,4.7v14h9.5V57.3H25z"/>
		<path d="M25,94.1v6.7C34.7,98.8,78.9,98.1,25,94.1z"/>
		<path d="M25,82.7v7.1C55.3,88.1,65.5,86,25,82.7z"/>
	</g>
	<g>
		<path d="M81.5,80.1h-5.2v-1h11.4v1h-5.2v13.8h-1.1V80.1z"/>
		<path d="M90.6,79h1.1v6.9h9.5V79h1.1v14.8h-1.1v-6.9h-9.5v6.9h-1.1V79z"/>
		<path d="M106.1,79h10.5v1h-9.4v5.8h8.5v1h-8.5v5.9h9.5v1h-10.7V79z"/>
		<path d="M77.1,102.4H82l2.9,9.7l3.2-9.8h4l3.2,9.8l2.9-9.7h4.8l-5.6,16.9h-4.1l-3.4-9.7l-3.4,9.7h-4.1L77.1,102.4z"/>
		<path d="M103.2,110.6L103.2,110.6c0-5.1,3.6-9.1,8.7-9.1c5.9,0,8.7,4.4,8.7,9.5c0,0.4,0,0.8,0,1.2H109c0.5,1.9,1.9,2.8,3.7,2.8
			c1.5,0,2.6-0.5,3.8-1.8l3.4,2.8c-1.7,2.1-4.1,3.5-7.5,3.5C107,119.6,103.2,116,103.2,110.6z M115,109.1c-0.2-1.9-1.4-3.1-3-3.1
			c-1.6,0-2.7,1.2-3,3.1H115z"/>
		<path d="M123.9,102.4h8.6c2.1,0,3.6,0.5,4.6,1.5c0.7,0.7,1.1,1.6,1.1,2.7v0c0,1.9-1.1,3.1-2.6,3.7c2,0.7,3.3,1.8,3.3,4.1v0
			c0,2.9-2.4,4.6-6.4,4.6h-8.7V102.4z M133.6,107.6c0-0.9-0.7-1.4-2.1-1.4h-3v3h2.9C132.8,109.1,133.6,108.6,133.6,107.6
			L133.6,107.6z M132,112.3h-3.6v3.1h3.6c1.4,0,2.2-0.6,2.2-1.5v0C134.3,112.9,133.6,112.3,132,112.3z"/>
		<path d="M142.5,102.4h8.6c2.1,0,3.6,0.5,4.6,1.5c0.7,0.7,1.1,1.6,1.1,2.7v0c0,1.9-1.1,3.1-2.6,3.7c2,0.7,3.3,1.8,3.3,4.1v0
			c0,2.9-2.4,4.6-6.4,4.6h-8.7V102.4z M152.2,107.6c0-0.9-0.7-1.4-2.1-1.4h-3v3h2.9C151.4,109.1,152.2,108.6,152.2,107.6
			L152.2,107.6z M150.6,112.3h-3.6v3.1h3.6c1.4,0,2.2-0.6,2.2-1.5v0C152.9,112.9,152.2,112.3,150.6,112.3z"/>
		<path d="M164,112.9l-6.4-10.5h5.3l3.5,6.1l3.5-6.1h5.2l-6.4,10.4v6.4H164V112.9z"/>
		<path d="M84.7,126.4h1.1l6.9,14.9h-1.2l-1.9-4.2h-8.7l-1.9,4.2h-1.1L84.7,126.4z M89.1,136.1l-3.9-8.6l-3.9,8.6H89.1z"/>
		<path d="M92.6,126.5h1.2l4.7,13.2l4.3-13.2h0.8l4.3,13.2l4.7-13.2h1.1l-5.4,14.9h-0.9l-4.3-12.9l-4.3,12.9H98L92.6,126.5z"/>
		<path d="M121,126.4h1.1l6.9,14.9h-1.2l-1.9-4.1h-8.7l-1.9,4.1h-1.1L121,126.4z M125.4,136.2l-3.9-8.6l-3.9,8.6H125.4z"/>
		<path d="M131.5,126.5h6.2c1.8,0,3.3,0.6,4.2,1.5c0.7,0.7,1.1,1.7,1.1,2.8v0c0,2.5-1.8,3.9-4.3,4.2l4.9,6.3h-1.4l-4.7-6.1h-4.8v6.1
			h-1.1V126.5z M137.6,134.2c2.5,0,4.3-1.2,4.3-3.4v0c0-2-1.6-3.2-4.3-3.2h-5.1v6.7H137.6z"/>
		<path d="M146.3,126.5h4.9c4.7,0,7.9,3.2,7.9,7.4v0c0,4.2-3.2,7.4-7.9,7.4h-4.9V126.5z M147.4,127.5v12.8h3.8
			c4.1,0,6.7-2.8,6.7-6.4v0c0-3.5-2.6-6.4-6.7-6.4H147.4z"/>
		<path d="M161.1,139.1l0.7-0.8c1.6,1.5,3.1,2.2,5.3,2.2c2.2,0,3.7-1.2,3.7-2.9v0c0-1.6-0.8-2.5-4.2-3.2c-3.6-0.7-5-1.9-5-4.2v0
			c0-2.2,2-3.9,4.8-3.9c2.2,0,3.6,0.6,5.1,1.8l-0.7,0.9c-1.4-1.2-2.8-1.7-4.4-1.7c-2.2,0-3.6,1.2-3.6,2.8v0c0,1.6,0.8,2.5,4.3,3.2
			c3.4,0.7,4.9,1.9,4.9,4.1v0c0,2.4-2.1,4-4.9,4C164.7,141.5,162.9,140.7,161.1,139.1z"/>
	</g>
</g>
</svg>
