<?xml version="1.0" encoding="utf-8"?>
<!-- Generator: Adobe Illustrator 21.0.2, SVG Export Plug-In . SVG Version: 6.00 Build 0)  -->
<svg version="1.1" id="Layer_2" xmlns="http://www.w3.org/2000/svg" xmlns:xlink="http://www.w3.org/1999/xlink" x="0px" y="0px"
	 viewBox="0 0 100 100" style="enable-background:new 0 0 100 100;" xml:space="preserve">
<style type="text/css">
	.st0{fill:#010101;}
</style>
<path class="st0" d="M85,23.4H14.8c-1.4,0-2.6,1.1-2.6,2.6v46.7h75.4V26C87.6,24.5,86.5,23.4,85,23.4z M84.1,70.4H15.7V27h68.4V70.4
	z"/>
<path class="st0" d="M94.9,77.6H5c-1.6,0-3-0.6-4.1-1.7l0,0c-0.1-0.1-0.2-0.3-0.2-0.4v-2.4h98.5v2.4c0,0.2-0.1,0.3-0.2,0.4l0,0
	C97.9,77,96.4,77.6,94.9,77.6z"/>
</svg>
