<?xml version="1.0" encoding="utf-8"?>
<!-- Generator: Adobe Illustrator 21.0.2, SVG Export Plug-In . SVG Version: 6.00 Build 0)  -->
<svg version="1.1" id="Layer_1" xmlns="http://www.w3.org/2000/svg" xmlns:xlink="http://www.w3.org/1999/xlink" x="0px" y="0px"
	 viewBox="0 0 1842 1348" style="enable-background:new 0 0 1842 1348;" xml:space="preserve">
<style type="text/css">
	.st0{opacity:0.5;filter:url(#filter-2);enable-background:new    ;}
	.st1{fill:url(#SVGID_1_);}
	.st2{opacity:5.000000e-02;filter:url(#filter-3);enable-background:new    ;}
	.st3{opacity:0.5;filter:url(#filter-4);enable-background:new    ;}
	.st4{filter:url(#filter-6);}
	.st5{fill:#FFFFFF;}
	.st6{filter:url(#filter-7);}
	.st7{fill:url(#notch_1_);fill-opacity:0.5;}
	.st8{fill:url(#bottom_1_);}
</style>
<filter  filterUnits="objectBoundingBox" height="108.5%" id="filter-7" width="105.5%" x="-2.8%" y="-2.3%">
	<feGaussianBlur  in="SourceAlpha" result="shadowBlurInner1" stdDeviation="1.5"></feGaussianBlur>
	<feOffset  dx="0" dy="3" in="shadowBlurInner1" result="shadowOffsetInner1"></feOffset>
	<feComposite  in="shadowOffsetInner1" in2="SourceAlpha" k2="-1" k3="1" operator="arithmetic" result="shadowInnerInner1">
		</feComposite>
	<feColorMatrix  in="shadowInnerInner1" type="matrix" values="0 0 0 0 1   0 0 0 0 1   0 0 0 0 1  0 0 0 1 0"></feColorMatrix>
</filter>
<filter  filterUnits="objectBoundingBox" height="113.8%" id="filter-6" width="109.0%" x="-4.5%" y="-4.9%">
	<feOffset  dx="0" dy="20" in="SourceAlpha" result="shadowOffsetOuter1"></feOffset>
	<feGaussianBlur  in="shadowOffsetOuter1" result="shadowBlurOuter1" stdDeviation="20"></feGaussianBlur>
	<feColorMatrix  in="shadowBlurOuter1" type="matrix" values="0 0 0 0 0   0 0 0 0 0   0 0 0 0 0  0 0 0 0.05 0"></feColorMatrix>
</filter>
<filter  filterUnits="objectBoundingBox" height="340.0%" id="filter-4" width="112.6%" x="-6.3%" y="-120.0%">
	<feGaussianBlur  in="SourceGraphic" stdDeviation="30"></feGaussianBlur>
</filter>
<filter  filterUnits="objectBoundingBox" height="201.7%" id="filter-3" width="107.2%" x="-3.6%" y="-50.8%">
	<feGaussianBlur  in="SourceGraphic" stdDeviation="18"></feGaussianBlur>
</filter>
<filter  filterUnits="objectBoundingBox" height="135.0%" id="filter-2" width="122.3%" x="-11.2%" y="-17.5%">
	<feGaussianBlur  in="SourceGraphic" stdDeviation="54.5366498"></feGaussianBlur>
</filter>
<title>Macbook</title>
<desc>Created with Sketch.</desc>
<g id="Mockup">
	<g id="Macbook" transform="translate(176.000000, 281.000000)">
		<g id="shadows" transform="translate(176.000000, 946.689558)">
			<g id="shadow" class="st0">
				
					<linearGradient id="SVGID_1_" gradientUnits="userSpaceOnUse" x1="69.2127" y1="-53.5315" x2="69.2127" y2="-53.7172" gradientTransform="matrix(1465.4403 0 0 -935.4613 -100864.1719 -50299.0938)">
					<stop  offset="0" style="stop-color:#000000;stop-opacity:0.5"/>
					<stop  offset="0.6587" style="stop-color:#000000;stop-opacity:5.000000e-02"/>
					<stop  offset="1" style="stop-color:#FFFFFF;stop-opacity:0"/>
				</linearGradient>
				<path class="st1" d="M1295.6-240.9l-148.3,353.6c-6.1,10.2-1162.7,10.2-1168.7,0l-148.3-353.6
					C-175.9-251.1,1301.7-251.1,1295.6-240.9z"/>
			</g>
			<g id="Rectangle-8" class="st2">
				<path d="M-122.5-261.6h1395c29.3,0,53.1,23.8,53.1,53.1l0,0c0,29.3-23.8,53.1-53.1,53.1h-1395c-29.3,0-53.1-23.8-53.1-53.1l0,0
					C-175.6-237.8-151.8-261.6-122.5-261.6z"/>
			</g>
			<g id="Rectangle-2" class="st3">
				<path d="M-98.5-261h1359c20.7,0,37.5,16.8,37.5,37.5l0,0c0,20.7-16.8,37.5-37.5,37.5h-1359c-20.7,0-37.5-16.8-37.5-37.5l0,0
					C-136-244.2-119.2-261-98.5-261z"/>
			</g>
		</g>
		<g id="case" transform="translate(0.144875, 0.251613)">
			<g id="screen">
				<g class="st4">
					<path id="path-5_3_" d="M18.1-262h1456.5c25.8,0,46.8,21,46.8,46.8v919.3c0,25.8-21,46.8-46.8,46.8H18.1
						c-25.8,0-46.8-21-46.8-46.8v-919.3C-28.7-241-7.7-262,18.1-262z"/>
				</g>
				<g>
					<path id="path-5_1_" class="st5" d="M18.1-262h1456.5c25.8,0,46.8,21,46.8,46.8v919.3c0,25.8-21,46.8-46.8,46.8H18.1
						c-25.8,0-46.8-21-46.8-46.8v-919.3C-28.7-241-7.7-262,18.1-262z"/>
				</g>
				<g class="st6">
					<path id="path-5_3_" d="M18.1-262h1456.5c25.8,0,46.8,21,46.8,46.8v919.3c0,25.8-21,46.8-46.8,46.8H18.1
						c-25.8,0-46.8-21-46.8-46.8v-919.3C-28.7-241-7.7-262,18.1-262z"/>
				</g>
			</g>
			<rect id="front" x="-176" y="741.7" class="st5" width="1841.7" height="12.3"/>
			
				<linearGradient id="notch_1_" gradientUnits="userSpaceOnUse" x1="243.5733" y1="911.144" x2="244.5733" y2="911.144" gradientTransform="matrix(328.4383 0 0 -9.2085 -79416.625 9136.6025)">
				<stop  offset="0" style="stop-color:#BCBDBF"/>
				<stop  offset="9.759645e-02" style="stop-color:#D8D8DF"/>
				<stop  offset="0.8882" style="stop-color:#D8D8DF"/>
				<stop  offset="1" style="stop-color:#ADAABD"/>
			</linearGradient>
			<path id="notch" class="st7" d="M582.2,741.7h328.4v4.6c0,2.5-2.1,4.6-4.6,4.6H586.8c-2.5,0-4.6-2.1-4.6-4.6V741.7z"/>
			
				<linearGradient id="bottom_1_" gradientUnits="userSpaceOnUse" x1="245.1265" y1="899.8342" x2="245.1265" y2="898.8342" gradientTransform="matrix(1841.7102 0 0 -24.5562 -450707.1875 22847.4609)">
				<stop  offset="0" style="stop-color:#FFFFFF"/>
				<stop  offset="1" style="stop-color:#CDCBD5"/>
			</linearGradient>
			<path id="bottom" class="st8" d="M747.9,750.9l917.8,3.1c0,0-44.2,21.5-294.7,21.5c-250.6,0-623.1,0-623.1,0s-377.2,0-629.3,0
				C-131.7,775.5-176,754-176,754L747.9,750.9z"/>
		</g>
		<g id="Place-design-here" transform="translate(202.534759, 53.564037)">
		</g>
	</g>
</g>
</svg>
