<?xml version="1.0" encoding="utf-8"?>
<!-- Generator: Adobe Illustrator 21.0.2, SVG Export Plug-In . SVG Version: 6.00 Build 0)  -->
<svg version="1.1" id="Layer_1" xmlns="http://www.w3.org/2000/svg" xmlns:xlink="http://www.w3.org/1999/xlink" x="0px" y="0px"
	 viewBox="0 0 100 100" style="enable-background:new 0 0 100 100;" xml:space="preserve">
<style type="text/css">
	.st0{fill:#010101;}
</style>
<path class="st0" d="M60.1,21.6H39.9c-2.1,0-3.8,1.7-3.8,3.8v49.3c0,2.1,1.7,3.8,3.8,3.8h20.1c2.1,0,3.8-1.7,3.8-3.8V25.4
	C63.9,23.3,62.2,21.6,60.1,21.6z M61.9,73.9c0,1.4-1.2,2.6-2.6,2.6H40.7c-1.4,0-2.6-1.2-2.6-2.6V25.8c0-1.4,1.2-2.6,2.6-2.6h2.5
	c0.1,0.2,0.1,0.5,0.1,0.7c0,0.3,0.4,1,1.1,1.1c0.6,0.1,5.4,0,5.9,0c0.5,0,5.2,0.1,5.9,0c0.7-0.1,1-0.8,1-1.1c0-0.2,0-0.5,0.1-0.7
	h2.1c1.4,0,2.6,1.2,2.6,2.6L61.9,73.9L61.9,73.9z"/>
</svg>
